<?xml version="1.0" encoding="UTF-8" standalone="no"?>
<!-- Created with Inkscape (http://www.inkscape.org/) -->

<svg
   xmlns:dc="http://purl.org/dc/elements/1.1/"
   xmlns:cc="http://creativecommons.org/ns#"
   xmlns:rdf="http://www.w3.org/1999/02/22-rdf-syntax-ns#"
   xmlns:svg="http://www.w3.org/2000/svg"
   xmlns="http://www.w3.org/2000/svg"
   xmlns:sodipodi="http://sodipodi.sourceforge.net/DTD/sodipodi-0.dtd"
   xmlns:inkscape="http://www.inkscape.org/namespaces/inkscape"
   width="296.23636mm"
   height="67.20874mm"
   viewBox="0 0 296.23636 67.20874"
   version="1.1"
   id="svg8"
   inkscape:version="0.92.5 (2060ec1f9f, 2020-04-08)"
   sodipodi:docname="upgma.svg">
  <defs
     id="defs2" />
  <sodipodi:namedview
     id="base"
     pagecolor="#ffffff"
     bordercolor="#666666"
     borderopacity="1.0"
     inkscape:pageopacity="0.0"
     inkscape:pageshadow="2"
     inkscape:zoom="0.7"
     inkscape:cx="-38.007879"
     inkscape:cy="39.941433"
     inkscape:document-units="mm"
     inkscape:current-layer="layer1"
     showgrid="false"
     inkscape:window-width="2371"
     inkscape:window-height="1376"
     inkscape:window-x="72"
     inkscape:window-y="27"
     inkscape:window-maximized="0"
     fit-margin-top="0"
     fit-margin-left="0"
     fit-margin-right="0"
     fit-margin-bottom="0" />
  <metadata
     id="metadata5">
    <rdf:RDF>
      <cc:Work
         rdf:about="">
        <dc:format>image/svg+xml</dc:format>
        <dc:type
           rdf:resource="http://purl.org/dc/dcmitype/StillImage" />
        <dc:title></dc:title>
      </cc:Work>
    </rdf:RDF>
  </metadata>
  <g
     inkscape:label="Layer 1"
     inkscape:groupmode="layer"
     id="layer1"
     transform="translate(-12.689621,-77.664686)">
    <g
       id="g1358"
       transform="translate(16.875968,-8.2913138)">
      <g
         word-spacing="normal"
         letter-spacing="normal"
         font-size-adjust="none"
         font-stretch="normal"
         font-weight="normal"
         font-variant="normal"
         font-style="normal"
         stroke-miterlimit="10.433"
         xml:space="preserve"
         transform="matrix(0.3,0,0,-0.3,-52.5,222.75)"
         id="content"
         style="font-style:normal;font-variant:normal;font-weight:normal;font-stretch:normal;letter-spacing:normal;word-spacing:normal;text-anchor:start;fill:none;fill-opacity:1;fill-rule:evenodd;stroke:#000000;stroke-linecap:butt;stroke-linejoin:miter;stroke-miterlimit:10.43299961;stroke-dasharray:none;stroke-dashoffset:0;stroke-opacity:1"><path
           id="path1287"
           d="m 481.22,439.75 v 0 0.01 0 0.01 0.02 0.01 0.02 0.02 l -0.01,0.02 v 0.02 l -0.01,0.02 v 0.02 l -0.01,0.02 -0.01,0.03 -0.01,0.02 -0.01,0.03 -0.02,0.02 -0.01,0.03 -0.02,0.02 -0.02,0.02 -0.02,0.03 -0.02,0.01 -0.01,0.01 -0.01,0.01 -0.02,0.01 -0.01,0.01 -0.02,0.01 -0.01,0.01 -0.02,0.01 -0.01,0.01 -0.02,0.01 h -0.02 l -0.02,0.01 -0.02,0.01 h -0.02 l -0.02,0.01 -0.03,0.01 h -0.02 -0.02 l -0.03,0.01 h -0.03 -0.02 l -0.03,0.01 h -0.03 -0.03 c -0.75,0 -5.48,-0.46 -6.33,-0.55 -0.4,-0.05 -0.7,-0.3 -0.7,-0.95 0,-0.6 0.45,-0.6 1.2,-0.6 2.39,0 2.49,-0.34 2.49,-0.84 l -0.14,-1 -3,-11.81 c -0.89,1.84 -2.35,3.18 -4.58,3.18 l 0.05,-1.09 c 3.23,0 3.93,-4.08 3.93,-4.37 0,-0.32 -0.09,-0.61 -0.14,-0.86 l -2.5,-9.77 c -0.25,-0.89 -0.25,-0.98 -1,-1.84 -2.18,-2.74 -4.23,-3.53 -5.62,-3.53 -2.49,0 -3.19,2.73 -3.19,4.68 0,2.49 1.59,8.61 2.74,10.91 1.54,2.94 3.79,4.78 5.78,4.78 l -0.05,1.09 c -5.83,0 -12,-7.31 -12,-14.59 0,-4.69 2.73,-7.97 6.62,-7.97 0.99,0 3.49,0.21 6.47,3.74 0.41,-2.1 2.14,-3.74 4.53,-3.74 1.75,0 2.9,1.14 3.69,2.74 0.85,1.79 1.5,4.84 1.5,4.93 0,0.5 -0.45,0.5 -0.59,0.5 -0.5,0 -0.55,-0.2 -0.7,-0.9 -0.85,-3.24 -1.75,-6.17 -3.79,-6.17 -1.34,0 -1.5,1.29 -1.5,2.29 0,1.19 0.1,1.55 0.3,2.39 z"
           inkscape:connector-curvature="0"
           style="fill:#000000;stroke-width:0" /><path
           id="path1289"
           d="m 495.59,436.86 v 0.09 0.09 l -0.01,0.09 -0.02,0.09 -0.02,0.09 -0.02,0.09 -0.02,0.08 -0.03,0.08 -0.04,0.08 -0.03,0.08 -0.04,0.07 -0.05,0.08 -0.05,0.07 -0.05,0.07 -0.05,0.06 -0.06,0.06 -0.06,0.06 -0.07,0.06 -0.06,0.05 -0.08,0.05 -0.07,0.05 -0.08,0.04 -0.08,0.04 -0.08,0.04 -0.09,0.03 -0.09,0.03 -0.09,0.02 -0.09,0.02 -0.1,0.02 -0.1,0.01 h -0.1 l -0.11,0.01 c -1.36,0 -2.7,-1.3 -2.7,-2.64 0,-0.96 0.7,-1.8 1.9,-1.8 1.14,0 2.64,1.14 2.64,2.64 z"
           inkscape:connector-curvature="0"
           style="fill:#000000;stroke-width:0" /><path
           id="path1291"
           d="m 491.8,418.12 0.05,0.14 0.05,0.12 0.05,0.12 0.04,0.11 0.05,0.1 0.04,0.1 0.03,0.09 0.04,0.09 0.03,0.09 0.03,0.08 0.03,0.08 0.03,0.08 0.03,0.07 0.03,0.07 0.05,0.15 0.05,0.14 0.05,0.14 0.03,0.07 0.03,0.08 0.02,0.08 0.03,0.08 0.03,0.08 0.04,0.09 0.03,0.1 0.03,0.09 0.04,0.11 0.04,0.11 0.05,0.11 0.04,0.13 c 0.41,1 0.66,1.68 0.66,2.64 0,2.23 -1.6,4.07 -4.1,4.07 -4.67,0 -6.57,-7.21 -6.57,-7.67 0,-0.5 0.5,-0.5 0.6,-0.5 0.5,0 0.55,0.11 0.8,0.91 1.34,4.69 3.33,6.17 5.03,6.17 0.39,0 1.25,0 1.25,-1.59 0,-1.05 -0.36,-2.1 -0.56,-2.6 -0.39,-1.29 -2.64,-7.06 -3.44,-9.22 -0.48,-1.28 -1.14,-2.93 -1.14,-3.98 0,-2.33 1.69,-4.08 4.1,-4.08 4.67,0 6.51,7.22 6.51,7.67 0,0.5 -0.44,0.5 -0.59,0.5 -0.5,0 -0.5,-0.15 -0.75,-0.9 -0.89,-3.13 -2.53,-6.17 -5.08,-6.17 -0.84,0 -1.2,0.5 -1.2,1.64 0,1.25 0.31,1.95 1.45,4.98 z"
           inkscape:connector-curvature="0"
           style="fill:#000000;stroke-width:0" /><path
           id="path1293"
           d="m 518.08,424.36 -0.13,-0.01 -0.13,-0.01 -0.13,-0.02 -0.12,-0.03 -0.12,-0.03 -0.11,-0.04 -0.12,-0.04 -0.11,-0.04 -0.11,-0.06 -0.1,-0.05 -0.1,-0.06 -0.1,-0.06 -0.09,-0.07 -0.09,-0.07 -0.08,-0.07 -0.08,-0.08 -0.08,-0.08 -0.07,-0.08 -0.07,-0.09 -0.07,-0.08 -0.06,-0.09 -0.05,-0.1 -0.05,-0.09 -0.05,-0.1 -0.04,-0.09 -0.03,-0.1 -0.03,-0.1 -0.03,-0.1 -0.02,-0.1 -0.01,-0.11 -0.01,-0.1 v -0.1 c 0,-0.7 0.43,-1.44 1.54,-1.44 1.1,0 2.29,0.85 2.29,2.78 0,2.25 -2.14,4.28 -5.93,4.28 -6.57,0 -8.42,-5.07 -8.42,-7.26 0,-3.89 3.69,-4.64 5.13,-4.94 2.59,-0.5 5.18,-1.05 5.18,-3.78 0,-1.3 -1.14,-5.48 -7.12,-5.48 -0.7,0 -4.53,0 -5.69,2.64 1.91,-0.25 3.14,1.25 3.14,2.64 0,1.14 -0.79,1.75 -1.84,1.75 -1.3,0 -2.78,-1.05 -2.78,-3.3 0,-2.84 2.84,-4.83 7.12,-4.83 8.07,0 10.02,6.03 10.02,8.27 0,1.79 -0.95,3.04 -1.55,3.64 -1.34,1.39 -2.8,1.64 -4.98,2.09 -1.8,0.39 -3.78,0.75 -3.78,2.99 0,1.45 1.18,4.48 5.57,4.48 1.24,0 3.74,-0.34 4.49,-2.28 z"
           inkscape:connector-curvature="0"
           style="fill:#000000;stroke-width:0" /><path
           id="path1295"
           d="m 532.26,425.64 h 4.69 c 0.98,0 1.48,0 1.48,1 0,0.55 -0.5,0.55 -1.39,0.55 h -4.39 c 1.8,7.08 2.05,8.08 2.05,8.37 0,0.85 -0.6,1.35 -1.44,1.35 -0.16,0 -1.55,-0.05 -2,-1.8 l -1.94,-7.92 h -4.69 c -1,0 -1.5,0 -1.5,-0.94 0,-0.61 0.41,-0.61 1.41,-0.61 h 4.37 c -3.57,-14.14 -3.78,-14.98 -3.78,-15.89 0,-2.69 1.89,-4.58 4.58,-4.58 5.08,0 7.92,7.27 7.92,7.67 0,0.5 -0.39,0.5 -0.59,0.5 -0.45,0 -0.5,-0.15 -0.75,-0.7 -2.14,-5.17 -4.78,-6.37 -6.47,-6.37 -1.05,0 -1.55,0.65 -1.55,2.29 0,1.19 0.1,1.55 0.3,2.39 z"
           inkscape:connector-curvature="0"
           style="fill:#000000;stroke-width:0" /><path
           id="path1297"
           d="m 556.48,393.77 v 0.02 0.03 l -0.01,0.01 v 0.02 0.01 l -0.01,0.02 v 0.01 l -0.01,0.02 -0.01,0.02 -0.01,0.02 -0.01,0.02 -0.01,0.03 -0.02,0.02 -0.02,0.03 -0.02,0.03 -0.02,0.03 -0.03,0.03 -0.03,0.04 -0.01,0.02 -0.02,0.02 -0.02,0.02 -0.02,0.02 -0.02,0.02 -0.02,0.02 -0.02,0.03 -0.02,0.02 -0.02,0.03 -0.03,0.02 -0.02,0.03 -0.03,0.03 -0.02,0.03 -0.03,0.02 -0.03,0.03 -0.03,0.04 -0.03,0.03 -0.03,0.03 -0.03,0.03 -0.04,0.04 -0.03,0.04 -0.04,0.03 -0.04,0.04 -0.04,0.04 c -6.22,6.28 -7.81,15.69 -7.81,23.31 0,8.67 1.89,17.35 8.02,23.56 0.64,0.61 0.64,0.71 0.64,0.86 0,0.35 -0.19,0.49 -0.49,0.49 -0.5,0 -4.98,-3.38 -7.92,-9.7 -2.55,-5.49 -3.14,-11.02 -3.14,-15.21 0,-3.89 0.55,-9.9 3.28,-15.55 2.99,-6.12 7.28,-9.35 7.78,-9.35 0.3,0 0.49,0.14 0.49,0.5 z"
           inkscape:connector-curvature="0"
           style="fill:#000000;stroke-width:0" /><path
           id="path1299"
           d="m 575.95,420.77 0.03,0.13 0.03,0.15 0.05,0.16 0.04,0.18 0.06,0.19 0.06,0.21 0.06,0.22 0.07,0.22 0.08,0.23 0.09,0.24 0.1,0.25 0.1,0.24 0.11,0.25 0.12,0.25 0.13,0.25 0.14,0.25 0.14,0.24 0.16,0.24 0.17,0.23 0.17,0.22 0.19,0.22 0.2,0.2 0.21,0.19 0.22,0.18 0.23,0.16 0.25,0.14 0.12,0.07 0.13,0.06 0.14,0.05 0.13,0.05 0.14,0.05 0.14,0.04 0.15,0.03 0.15,0.03 0.15,0.02 0.16,0.02 0.15,0.01 h 0.17 c 0.25,0 1.43,0 2.48,-0.64 -1.39,-0.25 -2.39,-1.5 -2.39,-2.69 0,-0.79 0.55,-1.75 1.89,-1.75 1.1,0 2.69,0.89 2.69,2.89 0,2.6 -2.94,3.28 -4.63,3.28 -2.89,0 -4.64,-2.64 -5.23,-3.78 -1.25,3.28 -3.94,3.78 -5.38,3.78 -5.18,0 -8.03,-6.42 -8.03,-7.67 0,-0.5 0.5,-0.5 0.61,-0.5 0.39,0 0.55,0.11 0.64,0.55 1.69,5.28 4.99,6.53 6.68,6.53 0.95,0 2.68,-0.44 2.68,-3.33 0,-1.54 -0.84,-4.89 -2.68,-11.86 -0.8,-3.09 -2.54,-5.18 -4.74,-5.18 -0.3,0 -1.44,0 -2.48,0.65 1.25,0.24 2.34,1.28 2.34,2.69 0,1.34 -1.09,1.73 -1.84,1.73 -1.5,0 -2.75,-1.29 -2.75,-2.89 0,-2.28 2.5,-3.28 4.68,-3.28 3.3,0 5.08,3.49 5.24,3.78 0.59,-1.84 2.39,-3.78 5.37,-3.78 5.14,0 7.99,6.42 7.99,7.67 0,0.5 -0.46,0.5 -0.61,0.5 -0.44,0 -0.55,-0.2 -0.64,-0.54 -1.64,-5.33 -5.03,-6.53 -6.63,-6.53 -1.95,0 -2.75,1.59 -2.75,3.29 0,1.1 0.3,2.19 0.86,4.38 z"
           inkscape:connector-curvature="0"
           style="fill:#000000;stroke-width:0" /><path
           id="path1301"
           d="m 597.85,405.77 v 0.3 l -0.01,0.3 -0.02,0.29 -0.02,0.28 -0.03,0.27 -0.04,0.26 -0.05,0.26 -0.05,0.24 -0.06,0.24 -0.06,0.23 -0.07,0.22 -0.08,0.21 -0.08,0.2 -0.09,0.19 -0.1,0.19 -0.1,0.17 -0.1,0.16 -0.11,0.16 -0.12,0.14 -0.13,0.13 -0.12,0.13 -0.14,0.11 -0.14,0.1 -0.14,0.1 -0.15,0.08 -0.15,0.07 -0.16,0.06 -0.16,0.05 -0.17,0.04 -0.17,0.03 -0.18,0.01 -0.18,0.01 c -1.64,0 -2.64,-1.25 -2.64,-2.64 0,-1.34 1,-2.64 2.64,-2.64 0.59,0 1.25,0.2 1.75,0.64 0.14,0.11 0.2,0.16 0.25,0.16 0.05,0 0.09,-0.05 0.09,-0.75 0,-3.69 -1.73,-6.68 -3.39,-8.32 -0.55,-0.54 -0.55,-0.65 -0.55,-0.79 0,-0.36 0.25,-0.55 0.5,-0.55 0.55,0 4.53,3.83 4.53,9.66 z"
           inkscape:connector-curvature="0"
           style="fill:#000000;stroke-width:0" /><path
           id="path1303"
           d="m 619.14,417.23 h 0.14 l 0.15,0.01 h 0.17 0.18 0.19 l 0.2,0.01 0.21,0.01 0.21,0.01 0.23,0.01 0.23,0.01 0.24,0.01 0.24,0.02 0.25,0.02 0.26,0.02 0.52,0.05 0.54,0.07 0.54,0.07 0.55,0.1 0.54,0.11 0.53,0.12 0.26,0.07 0.26,0.08 0.25,0.07 0.25,0.09 0.25,0.09 0.23,0.1 c 3.49,1.5 3.74,4.43 3.74,5.12 0,2.2 -1.9,4.23 -5.33,4.23 v -1.09 c 2.34,0 3.68,-1.44 3.68,-3.14 0,-5.17 -7.96,-5.17 -10.01,-5.17 h -2.05 c 1.96,7.56 7.08,8.31 8.38,8.31 v 1.09 c -5.53,0 -13.05,-4.82 -13.05,-13.54 0,-5.08 2.94,-9.02 7.81,-9.02 7.13,0 11.32,5.28 11.32,5.88 0,0.29 -0.3,0.65 -0.6,0.65 -0.25,0 -0.34,-0.11 -0.65,-0.5 -3.94,-4.93 -9.36,-4.93 -9.96,-4.93 -3.89,0 -4.34,4.18 -4.34,5.78 0,0.59 0.05,2.14 0.8,5.18 z"
           inkscape:connector-curvature="0"
           style="fill:#000000;stroke-width:0" /><path
           id="path1305"
           d="m 647.37,418.17 v 0.37 l -0.01,0.39 v 0.39 l -0.02,0.41 -0.04,0.84 -0.06,0.88 -0.08,0.92 -0.11,0.95 -0.13,0.97 -0.16,1.01 -0.2,1.02 -0.23,1.03 -0.27,1.05 -0.3,1.06 -0.35,1.07 -0.39,1.07 -0.22,0.53 -0.22,0.53 -0.24,0.53 -0.25,0.53 c -2.99,6.12 -7.27,9.36 -7.77,9.36 -0.29,0 -0.5,-0.19 -0.5,-0.49 0,-0.15 0,-0.25 0.94,-1.15 4.89,-4.92 7.74,-12.85 7.74,-23.27 0,-8.51 -1.85,-17.28 -8.03,-23.56 -0.65,-0.59 -0.65,-0.7 -0.65,-0.84 0,-0.3 0.21,-0.5 0.5,-0.5 0.5,0 4.97,3.39 7.93,9.71 2.53,5.47 3.12,11 3.12,15.19 z"
           inkscape:connector-curvature="0"
           style="fill:#000000;stroke-width:0" /><path
           id="path1307"
           d="m 700.57,422.02 h 0.14 0.14 0.15 l 0.07,0.01 h 0.07 l 0.08,0.01 0.07,0.01 0.07,0.01 0.07,0.01 0.07,0.01 0.06,0.02 0.07,0.02 0.06,0.02 0.06,0.02 0.06,0.03 0.05,0.03 0.06,0.04 0.05,0.03 0.04,0.05 0.05,0.04 0.04,0.05 0.02,0.03 0.01,0.03 0.02,0.02 0.02,0.03 0.01,0.03 0.01,0.04 0.01,0.03 0.02,0.04 0.01,0.03 v 0.04 l 0.01,0.04 0.01,0.04 v 0.04 l 0.01,0.04 v 0.04 0.05 c 0,1 -0.96,1 -1.64,1 h -29.85 c -0.7,0 -1.64,0 -1.64,-1 0,-0.98 0.94,-0.98 1.69,-0.98 z"
           inkscape:connector-curvature="0"
           style="fill:#000000;stroke-width:0" /><path
           id="path1309"
           d="m 700.62,412.34 h 0.06 0.07 l 0.14,0.01 h 0.13 0.07 l 0.07,0.01 0.07,0.01 h 0.07 l 0.07,0.01 0.07,0.02 0.07,0.01 0.06,0.02 0.06,0.02 0.07,0.02 0.06,0.02 0.05,0.03 0.06,0.03 0.05,0.04 0.05,0.04 0.05,0.04 0.04,0.05 0.02,0.02 0.02,0.03 0.02,0.02 0.01,0.03 0.02,0.03 0.02,0.03 0.01,0.03 0.01,0.03 0.01,0.04 0.02,0.03 0.01,0.04 v 0.04 l 0.01,0.04 0.01,0.04 v 0.04 l 0.01,0.04 v 0.05 0.04 c 0,1 -0.96,1 -1.69,1 h -29.75 c -0.75,0 -1.69,0 -1.69,-1 0,-1 0.94,-1 1.64,-1 z"
           inkscape:connector-curvature="0"
           style="fill:#000000;stroke-width:0" /><path
           id="path1311"
           d="m 744.81,452.98 h 0.01 v 0.01 0 0.01 0 l 0.01,0.01 v 0 0.01 0.01 l 0.01,0.01 v 0.01 l 0.01,0.02 v 0.02 l 0.01,0.02 0.01,0.02 v 0.02 l 0.01,0.02 v 0.03 l 0.01,0.02 0.01,0.05 0.01,0.02 v 0.02 l 0.01,0.02 v 0.03 l 0.01,0.02 v 0.02 0.02 l 0.01,0.02 v 0.01 0.02 l 0.01,0.01 v 0 0.01 0.01 0 0.01 0 0.01 0 0 0.01 0 c 0,0.18 -0.14,0.5 -0.54,0.5 -0.71,0 -3.6,-0.28 -4.47,-0.36 -0.28,-0.03 -0.77,-0.06 -0.77,-0.8 0,-0.48 0.49,-0.48 0.91,-0.48 1.67,0 1.67,-0.25 1.67,-0.53 0,-0.24 -0.06,-0.46 -0.14,-0.77 l -1.99,-7.94 c -0.73,1.14 -1.92,2.05 -3.59,2.05 v -0.97 c 2.44,0 3.11,-2.64 3.11,-3.03 0,-0.14 -0.08,-0.39 -0.11,-0.49 l -1.64,-6.51 c -0.23,-0.99 -1,-1.67 -1.77,-2.34 -0.31,-0.27 -1.71,-1.4 -3.21,-1.4 -1.29,0 -2.53,0.91 -2.53,3.38 0,1.86 1,5.69 1.81,7.08 1.59,2.79 3.37,3.31 4.34,3.31 v 0.97 c -4.45,0 -8.98,-4.91 -8.98,-9.92 0,-3.38 2.26,-5.78 5.26,-5.78 1.88,0 3.55,1.07 4.94,2.43 0.67,-2.09 2.69,-2.43 3.59,-2.43 1.25,0 2.13,0.76 2.75,1.84 0.77,1.36 1.22,3.34 1.22,3.48 0,0.46 -0.45,0.46 -0.54,0.46 -0.5,0 -0.54,-0.14 -0.77,-1.08 -0.42,-1.67 -1.09,-3.74 -2.55,-3.74 -0.9,0 -1.15,0.77 -1.15,1.71 0,0.67 0.08,0.98 0.17,1.44 z"
           inkscape:connector-curvature="0"
           style="fill:#000000;stroke-width:0" /><path
           id="path1313"
           d="m 756.98,451.62 v 0.05 l -0.01,0.06 v 0.05 l -0.01,0.06 -0.01,0.05 -0.02,0.06 -0.02,0.05 -0.01,0.06 -0.03,0.06 -0.02,0.05 -0.03,0.06 -0.03,0.05 -0.03,0.06 -0.04,0.05 -0.04,0.05 -0.04,0.05 -0.04,0.05 -0.05,0.05 -0.05,0.04 -0.05,0.04 -0.06,0.04 -0.06,0.04 -0.06,0.04 -0.06,0.03 -0.07,0.03 -0.07,0.02 -0.08,0.03 -0.08,0.01 -0.08,0.02 -0.08,0.01 -0.09,0.01 h -0.09 c -0.94,0 -1.95,-0.91 -1.95,-1.92 0,-0.6 0.45,-1.33 1.4,-1.33 1,0 1.96,0.98 1.96,1.92 z"
           inkscape:connector-curvature="0"
           style="fill:#000000;stroke-width:0" /><path
           id="path1315"
           d="m 749.87,433.92 -0.06,-0.17 -0.05,-0.17 -0.03,-0.08 -0.02,-0.09 -0.03,-0.09 -0.02,-0.08 -0.02,-0.09 -0.02,-0.09 -0.02,-0.1 -0.02,-0.09 -0.01,-0.1 v -0.05 l -0.01,-0.06 v -0.05 -0.05 -0.06 l -0.01,-0.05 c 0,-1.64 1.4,-2.95 3.3,-2.95 3.49,0 5.03,4.79 5.03,5.32 0,0.46 -0.45,0.46 -0.56,0.46 -0.48,0 -0.53,-0.21 -0.67,-0.6 -0.8,-2.78 -2.33,-4.22 -3.69,-4.22 -0.7,0 -0.87,0.46 -0.87,1.22 0,0.8 0.25,1.47 0.56,2.24 0.34,0.94 0.73,1.87 1.11,2.78 0.31,0.84 1.58,4.01 1.72,4.44 0.09,0.34 0.2,0.76 0.2,1.11 0,1.64 -1.39,2.95 -3.31,2.95 -3.46,0 -5.05,-4.74 -5.05,-5.33 0,-0.45 0.48,-0.45 0.59,-0.45 0.49,0 0.52,0.17 0.63,0.56 0.91,3 2.44,4.25 3.72,4.25 0.56,0 0.87,-0.28 0.87,-1.22 0,-0.8 -0.2,-1.33 -1.08,-3.48 z"
           inkscape:connector-curvature="0"
           style="fill:#000000;stroke-width:0" /><path
           id="path1317"
           d="m 774.73,442.93 -0.08,-0.02 -0.08,-0.02 -0.08,-0.03 -0.08,-0.03 -0.07,-0.03 -0.08,-0.03 -0.07,-0.04 -0.07,-0.04 -0.06,-0.04 -0.07,-0.04 -0.06,-0.05 -0.06,-0.05 -0.06,-0.05 -0.05,-0.05 -0.05,-0.05 -0.05,-0.06 -0.05,-0.05 -0.04,-0.06 -0.04,-0.06 -0.04,-0.06 -0.03,-0.06 -0.04,-0.06 -0.03,-0.06 -0.02,-0.07 -0.03,-0.06 -0.02,-0.06 -0.01,-0.07 -0.02,-0.06 -0.01,-0.07 -0.01,-0.06 v -0.07 -0.06 c 0,-0.81 0.7,-1.13 1.15,-1.13 0.35,0 1.67,0.22 1.67,1.99 0,2.26 -2.5,3.03 -4.62,3.03 -5.44,0 -6.42,-4 -6.42,-5.08 0,-1.3 0.73,-2.12 1.22,-2.55 0.9,-0.7 1.53,-0.82 3.93,-1.25 0.74,-0.14 2.97,-0.56 2.97,-2.29 0,-0.6 -0.39,-1.92 -1.84,-2.8 -1.36,-0.77 -3.08,-0.77 -3.49,-0.77 -1.4,0 -3.39,0.32 -4.18,1.47 1.15,0.14 1.92,1 1.92,1.99 0,0.87 -0.63,1.28 -1.36,1.28 -1.02,0 -2.03,-0.8 -2.03,-2.33 0,-2.09 2.23,-3.37 5.61,-3.37 6.42,0 7.61,4.39 7.61,5.75 0,3.2 -3.53,3.82 -4.82,4.07 -0.31,0.07 -1.18,0.21 -1.39,0.27 -1.29,0.25 -1.92,0.98 -1.92,1.75 0,0.8 0.63,1.73 1.39,2.23 0.94,0.6 2.16,0.66 2.75,0.66 0.74,0 2.55,-0.11 3.31,-1.3 z"
           inkscape:connector-curvature="0"
           style="fill:#000000;stroke-width:0" /><path
           id="path1319"
           d="m 787.14,443.61 h 3.54 c 0.66,0 1.11,0 1.11,0.76 0,0.49 -0.45,0.49 -1.03,0.49 h -3.31 l 1.28,5.15 c 0.03,0.17 0.11,0.35 0.11,0.49 0,0.64 -0.49,1.12 -1.19,1.12 -0.87,0 -1.39,-0.59 -1.64,-1.5 -0.23,-0.87 0.22,0.8 -1.33,-5.26 h -3.54 c -0.66,0 -1.11,0 -1.11,-0.77 0,-0.48 0.4,-0.48 1.04,-0.48 h 3.3 l -2.05,-8.22 c -0.22,-0.88 -0.53,-2.13 -0.53,-2.58 0,-2.06 1.75,-3.31 3.74,-3.31 3.87,0 6.06,4.87 6.06,5.32 0,0.46 -0.45,0.46 -0.56,0.46 -0.41,0 -0.46,-0.08 -0.72,-0.66 -0.99,-2.2 -2.77,-4.16 -4.67,-4.16 -0.74,0 -1.22,0.46 -1.22,1.71 0,0.36 0.14,1.09 0.2,1.44 z"
           inkscape:connector-curvature="0"
           style="fill:#000000;stroke-width:0" /><path
           id="path1321"
           d="m 805.93,455.98 -0.6,-0.45 -0.58,-0.46 -0.55,-0.47 -0.53,-0.49 -0.5,-0.5 -0.47,-0.51 -0.45,-0.53 -0.42,-0.53 -0.4,-0.54 -0.37,-0.55 -0.36,-0.56 -0.33,-0.56 -0.31,-0.57 -0.28,-0.57 -0.27,-0.58 -0.25,-0.58 -0.23,-0.58 -0.2,-0.58 -0.2,-0.59 -0.17,-0.58 -0.15,-0.58 -0.14,-0.58 -0.13,-0.57 -0.1,-0.57 -0.1,-0.57 -0.08,-0.56 -0.06,-0.55 -0.05,-0.54 -0.04,-0.54 -0.03,-0.53 -0.02,-0.51 v -0.51 c 0,-4.92 1.47,-12.55 8.37,-17.42 0.29,0 0.69,0 0.69,0.4 0,0.22 -0.09,0.29 -0.34,0.54 -4.64,4.18 -6.35,10.1 -6.35,16.45 0,9.4 3.6,14 6.46,16.58 0.14,0.14 0.23,0.25 0.23,0.42 0,0.42 -0.4,0.42 -0.69,0.42 z"
           inkscape:connector-curvature="0"
           style="fill:#000000;stroke-width:0" /><path
           id="path1323"
           d="m 817.83,433.53 -0.04,-0.11 -0.04,-0.12 -0.04,-0.12 -0.05,-0.12 -0.05,-0.13 -0.06,-0.12 -0.06,-0.13 -0.07,-0.13 -0.07,-0.12 -0.08,-0.13 -0.08,-0.13 -0.08,-0.13 -0.09,-0.12 -0.09,-0.13 -0.1,-0.12 -0.1,-0.11 -0.11,-0.12 -0.11,-0.11 -0.11,-0.1 -0.12,-0.11 -0.12,-0.09 -0.13,-0.09 -0.13,-0.08 -0.13,-0.08 -0.14,-0.07 -0.14,-0.06 -0.15,-0.06 -0.14,-0.04 -0.16,-0.04 -0.15,-0.02 -0.16,-0.02 -0.17,-0.01 c -0.11,0 -1.15,0 -1.89,0.49 1.44,0.45 1.53,1.72 1.53,1.92 0,0.77 -0.59,1.3 -1.39,1.3 -0.97,0 -1.98,-0.85 -1.98,-2.14 0,-1.74 1.95,-2.53 3.65,-2.53 1.61,0 3.04,1 3.91,2.46 0.83,-1.84 2.75,-2.46 4.14,-2.46 4.02,0 6.14,4.34 6.14,5.32 0,0.46 -0.45,0.46 -0.56,0.46 -0.49,0 -0.52,-0.17 -0.66,-0.6 -0.73,-2.4 -2.83,-4.22 -4.78,-4.22 -1.39,0 -2.12,0.94 -2.12,2.27 0,0.91 0.84,4.08 1.81,7.95 0.7,2.68 2.26,3.55 3.42,3.55 0.06,0 1.14,0 1.88,-0.48 -1.11,-0.32 -1.54,-1.3 -1.54,-1.93 0,-0.76 0.6,-1.28 1.4,-1.28 0.81,0 1.95,0.66 1.95,2.13 0,1.95 -2.24,2.53 -3.63,2.53 -1.73,0 -3.14,-1.14 -3.9,-2.47 -0.63,1.44 -2.22,2.47 -4.17,2.47 -3.91,0 -6.15,-4.28 -6.15,-5.33 0,-0.45 0.5,-0.45 0.6,-0.45 0.45,0 0.48,0.14 0.67,0.59 0.86,2.72 3.06,4.22 4.77,4.22 1.15,0 2.09,-0.62 2.09,-2.3 0,-0.7 -0.42,-2.43 -0.73,-3.62 z"
           inkscape:connector-curvature="0"
           style="fill:#000000;stroke-width:0" /><path
           id="path1325"
           d="m 839.07,430.4 v -0.36 l -0.02,-0.37 -0.02,-0.38 -0.05,-0.38 -0.03,-0.2 -0.03,-0.19 -0.04,-0.2 -0.04,-0.19 -0.05,-0.2 -0.06,-0.2 -0.06,-0.2 -0.07,-0.2 -0.08,-0.21 -0.08,-0.2 -0.09,-0.2 -0.1,-0.21 -0.1,-0.2 -0.12,-0.21 -0.12,-0.2 -0.13,-0.21 -0.15,-0.21 -0.15,-0.21 -0.16,-0.2 -0.17,-0.21 -0.18,-0.21 -0.2,-0.21 -0.2,-0.2 -0.22,-0.21 c -0.13,-0.14 -0.25,-0.25 -0.25,-0.42 0,-0.25 0.29,-0.49 0.49,-0.49 0.48,0 3.45,2.78 3.45,6.92 0,2.17 -0.84,3.8 -2.44,3.8 -1.15,0 -1.98,-0.91 -1.98,-1.98 0,-1.11 0.8,-2.02 2.02,-2.02 0.84,0 1.39,0.56 1.43,0.56 z"
           inkscape:connector-curvature="0"
           style="fill:#000000;stroke-width:0" /><path
           id="path1327"
           d="m 858.86,443.18 -0.12,-0.02 -0.11,-0.02 -0.11,-0.03 -0.1,-0.04 -0.1,-0.03 -0.1,-0.05 -0.09,-0.04 -0.08,-0.05 -0.09,-0.05 -0.07,-0.06 -0.08,-0.05 -0.07,-0.06 -0.07,-0.06 -0.06,-0.07 -0.06,-0.06 -0.06,-0.07 -0.05,-0.07 -0.05,-0.07 -0.04,-0.08 -0.04,-0.07 -0.04,-0.07 -0.03,-0.08 -0.03,-0.07 -0.03,-0.08 -0.03,-0.08 -0.02,-0.07 -0.01,-0.08 -0.02,-0.07 -0.01,-0.08 -0.01,-0.07 v -0.08 -0.07 c 0,-0.94 0.73,-1.28 1.36,-1.28 0.76,0 1.98,0.55 1.98,2.22 0,2.37 -2.72,3.03 -4.59,3.03 -5.24,0 -10.08,-4.8 -10.08,-9.64 0,-3 2.09,-6.06 6.45,-6.06 5.89,0 8.64,3.43 8.64,3.93 0,0.21 -0.31,0.6 -0.59,0.6 -0.2,0 -0.28,-0.08 -0.56,-0.36 -2.72,-3.21 -6.8,-3.21 -7.42,-3.21 -2.5,0 -3.63,1.71 -3.63,3.88 0,1 0.5,4.8 2.31,7.2 1.32,1.72 3.13,2.69 4.88,2.69 0.48,0 2.15,-0.06 3.03,-1.05 z"
           inkscape:connector-curvature="0"
           style="fill:#000000;stroke-width:0" /><path
           id="path1329"
           d="m 864.49,455.98 h -0.02 -0.03 -0.02 -0.03 -0.03 -0.02 -0.03 l -0.03,-0.01 h -0.03 -0.02 l -0.03,-0.01 h -0.03 l -0.03,-0.01 -0.03,-0.01 h -0.02 l -0.03,-0.01 -0.02,-0.01 -0.03,-0.01 -0.02,-0.02 -0.02,-0.01 -0.02,-0.02 -0.02,-0.02 -0.02,-0.02 -0.01,-0.01 -0.01,-0.01 -0.01,-0.01 -0.01,-0.01 v -0.01 l -0.01,-0.02 -0.01,-0.01 v -0.01 l -0.01,-0.02 v -0.01 l -0.01,-0.02 v -0.01 -0.02 l -0.01,-0.02 v -0.01 -0.02 -0.02 -0.02 c 0,-0.17 0.11,-0.28 0.31,-0.53 3,-2.75 6.35,-7.46 6.35,-16.44 0,-7.28 -2.27,-12.8 -6.03,-16.2 -0.58,-0.6 -0.63,-0.63 -0.63,-0.82 0,-0.17 0.11,-0.4 0.45,-0.4 0.43,0 3.74,2.29 6.03,6.65 1.54,2.89 2.55,6.66 2.55,10.74 0,4.9 -1.47,12.53 -8.36,17.42 z"
           inkscape:connector-curvature="0"
           style="fill:#000000;stroke-width:0" /><path
           id="path1331"
           d="m 893.09,437.71 h 10.66 c 0.45,0 1.28,0 1.28,0.85 0,0.86 -0.8,0.86 -1.28,0.86 h -10.66 v 10.7 c 0,0.45 0,1.28 -0.84,1.28 -0.88,0 -0.88,-0.79 -0.88,-1.28 v -10.7 h -10.69 c -0.45,0 -1.29,0 -1.29,-0.83 0,-0.88 0.79,-0.88 1.29,-0.88 h 10.69 v -10.7 c 0,-0.45 0,-1.28 0.85,-1.28 0.87,0 0.87,0.8 0.87,1.28 z"
           inkscape:connector-curvature="0"
           style="fill:#000000;stroke-width:0" /><path
           id="path1333"
           d="m 927.44,452.98 v 0 0.01 0 l 0.01,0.01 v 0 0.01 0 l 0.01,0.01 v 0.01 0.01 l 0.01,0.01 v 0.02 l 0.01,0.02 0.01,0.02 v 0.02 l 0.01,0.02 v 0.02 l 0.01,0.03 v 0.02 l 0.02,0.05 v 0.02 l 0.01,0.02 v 0.02 l 0.01,0.03 v 0.02 0.02 l 0.01,0.02 v 0.02 l 0.01,0.01 v 0.02 0.01 0 0.01 0.01 0 l 0.01,0.01 v 0 0.01 0 0 0.01 0 c 0,0.18 -0.14,0.5 -0.55,0.5 -0.7,0 -3.59,-0.28 -4.47,-0.36 -0.28,-0.03 -0.76,-0.06 -0.76,-0.8 0,-0.48 0.48,-0.48 0.9,-0.48 1.68,0 1.68,-0.25 1.68,-0.53 0,-0.24 -0.07,-0.46 -0.15,-0.77 l -1.98,-7.94 c -0.73,1.14 -1.92,2.05 -3.59,2.05 v -0.97 c 2.43,0 3.11,-2.64 3.11,-3.03 0,-0.14 -0.08,-0.39 -0.11,-0.49 l -1.64,-6.51 c -0.24,-0.99 -1,-1.67 -1.77,-2.34 -0.31,-0.27 -1.72,-1.4 -3.22,-1.4 -1.28,0 -2.53,0.91 -2.53,3.38 0,1.86 1,5.69 1.81,7.08 1.6,2.79 3.38,3.31 4.35,3.31 v 0.97 c -4.46,0 -8.99,-4.91 -8.99,-9.92 0,-3.38 2.27,-5.78 5.27,-5.78 1.87,0 3.54,1.07 4.94,2.43 0.67,-2.09 2.68,-2.43 3.59,-2.43 1.25,0 2.12,0.76 2.75,1.84 0.76,1.36 1.22,3.34 1.22,3.48 0,0.46 -0.46,0.46 -0.55,0.46 -0.5,0 -0.53,-0.14 -0.77,-1.08 -0.42,-1.67 -1.09,-3.74 -2.54,-3.74 -0.91,0 -1.16,0.77 -1.16,1.71 0,0.67 0.08,0.98 0.17,1.44 z"
           inkscape:connector-curvature="0"
           style="fill:#000000;stroke-width:0" /><path
           id="path1335"
           d="m 939.6,451.62 v 0.05 0.06 l -0.01,0.05 -0.01,0.06 -0.01,0.05 -0.01,0.06 -0.02,0.05 -0.02,0.06 -0.02,0.06 -0.03,0.05 -0.02,0.06 -0.03,0.05 -0.04,0.06 -0.03,0.05 -0.04,0.05 -0.04,0.05 -0.05,0.05 -0.04,0.05 -0.05,0.04 -0.06,0.04 -0.05,0.04 -0.06,0.04 -0.06,0.04 -0.07,0.03 -0.07,0.03 -0.07,0.02 -0.07,0.03 -0.08,0.01 -0.08,0.02 -0.09,0.01 -0.08,0.01 h -0.09 c -0.94,0 -1.96,-0.91 -1.96,-1.92 0,-0.6 0.46,-1.33 1.41,-1.33 1,0 1.95,0.98 1.95,1.92 z"
           inkscape:connector-curvature="0"
           style="fill:#000000;stroke-width:0" /><path
           id="path1337"
           d="m 932.49,433.92 -0.05,-0.17 -0.06,-0.17 -0.02,-0.08 -0.03,-0.09 -0.02,-0.09 -0.03,-0.08 -0.02,-0.09 -0.02,-0.09 -0.02,-0.1 -0.01,-0.09 -0.01,-0.1 -0.01,-0.05 v -0.06 l -0.01,-0.05 v -0.05 -0.06 -0.05 c 0,-1.64 1.39,-2.95 3.3,-2.95 3.48,0 5.03,4.79 5.03,5.32 0,0.46 -0.46,0.46 -0.56,0.46 -0.49,0 -0.54,-0.21 -0.68,-0.6 -0.79,-2.78 -2.32,-4.22 -3.68,-4.22 -0.71,0 -0.88,0.46 -0.88,1.22 0,0.8 0.25,1.47 0.56,2.24 0.35,0.94 0.74,1.87 1.11,2.78 0.32,0.84 1.58,4.01 1.72,4.44 0.1,0.34 0.2,0.76 0.2,1.11 0,1.64 -1.39,2.95 -3.31,2.95 -3.45,0 -5.04,-4.74 -5.04,-5.33 0,-0.45 0.48,-0.45 0.59,-0.45 0.48,0 0.51,0.17 0.62,0.56 0.91,3 2.44,4.25 3.72,4.25 0.57,0 0.88,-0.28 0.88,-1.22 0,-0.8 -0.21,-1.33 -1.08,-3.48 z"
           inkscape:connector-curvature="0"
           style="fill:#000000;stroke-width:0" /><path
           id="path1339"
           d="m 957.36,442.93 -0.08,-0.02 -0.09,-0.02 -0.08,-0.03 -0.07,-0.03 -0.08,-0.03 -0.07,-0.03 -0.07,-0.04 -0.07,-0.04 -0.07,-0.04 -0.06,-0.04 -0.06,-0.05 -0.06,-0.05 -0.06,-0.05 -0.05,-0.05 -0.06,-0.05 -0.04,-0.06 -0.05,-0.05 -0.04,-0.06 -0.05,-0.06 -0.03,-0.06 -0.04,-0.06 -0.03,-0.06 -0.03,-0.06 -0.03,-0.07 -0.02,-0.06 -0.02,-0.06 -0.02,-0.07 -0.01,-0.06 -0.01,-0.07 -0.01,-0.06 -0.01,-0.07 v -0.06 c 0,-0.81 0.7,-1.13 1.16,-1.13 0.34,0 1.67,0.22 1.67,1.99 0,2.26 -2.5,3.03 -4.63,3.03 -5.43,0 -6.42,-4 -6.42,-5.08 0,-1.3 0.74,-2.12 1.22,-2.55 0.91,-0.7 1.53,-0.82 3.94,-1.25 0.73,-0.14 2.97,-0.56 2.97,-2.29 0,-0.6 -0.39,-1.92 -1.85,-2.8 -1.36,-0.77 -3.07,-0.77 -3.48,-0.77 -1.41,0 -3.39,0.32 -4.19,1.47 1.16,0.14 1.92,1 1.92,1.99 0,0.87 -0.62,1.28 -1.36,1.28 -1.01,0 -2.03,-0.8 -2.03,-2.33 0,-2.09 2.24,-3.37 5.61,-3.37 6.42,0 7.61,4.39 7.61,5.75 0,3.2 -3.53,3.82 -4.81,4.07 -0.31,0.07 -1.19,0.21 -1.39,0.27 -1.3,0.25 -1.92,0.98 -1.92,1.75 0,0.8 0.62,1.73 1.39,2.23 0.93,0.6 2.15,0.66 2.75,0.66 0.73,0 2.54,-0.11 3.31,-1.3 z"
           inkscape:connector-curvature="0"
           style="fill:#000000;stroke-width:0" /><path
           id="path1341"
           d="m 969.76,443.61 h 3.55 c 0.66,0 1.11,0 1.11,0.76 0,0.49 -0.45,0.49 -1.03,0.49 h -3.32 l 1.28,5.15 c 0.04,0.17 0.12,0.35 0.12,0.49 0,0.64 -0.49,1.12 -1.19,1.12 -0.88,0 -1.39,-0.59 -1.64,-1.5 -0.24,-0.87 0.21,0.8 -1.33,-5.26 h -3.55 c -0.66,0 -1.11,0 -1.11,-0.77 0,-0.48 0.41,-0.48 1.05,-0.48 h 3.3 l -2.05,-8.22 c -0.22,-0.88 -0.53,-2.13 -0.53,-2.58 0,-2.06 1.75,-3.31 3.73,-3.31 3.88,0 6.07,4.87 6.07,5.32 0,0.46 -0.46,0.46 -0.57,0.46 -0.4,0 -0.45,-0.08 -0.72,-0.66 -0.98,-2.2 -2.76,-4.16 -4.67,-4.16 -0.73,0 -1.22,0.46 -1.22,1.71 0,0.36 0.14,1.09 0.21,1.44 z"
           inkscape:connector-curvature="0"
           style="fill:#000000;stroke-width:0" /><path
           id="path1343"
           d="m 988.56,455.98 -0.61,-0.45 -0.58,-0.46 -0.55,-0.47 -0.52,-0.49 -0.5,-0.5 -0.47,-0.51 -0.45,-0.53 -0.42,-0.53 -0.4,-0.54 -0.38,-0.55 -0.35,-0.56 -0.33,-0.56 -0.31,-0.57 -0.29,-0.57 -0.27,-0.58 -0.24,-0.58 -0.23,-0.58 -0.21,-0.58 -0.19,-0.59 -0.17,-0.58 -0.16,-0.58 -0.14,-0.58 -0.12,-0.57 -0.11,-0.57 -0.09,-0.57 -0.08,-0.56 -0.07,-0.55 -0.05,-0.54 -0.04,-0.54 -0.02,-0.53 -0.02,-0.51 -0.01,-0.51 c 0,-4.92 1.47,-12.55 8.38,-17.42 0.28,0 0.69,0 0.69,0.4 0,0.22 -0.1,0.29 -0.35,0.54 -4.64,4.18 -6.34,10.1 -6.34,16.45 0,9.4 3.59,14 6.45,16.58 0.14,0.14 0.24,0.25 0.24,0.42 0,0.42 -0.41,0.42 -0.69,0.42 z"
           inkscape:connector-curvature="0"
           style="fill:#000000;stroke-width:0" /><path
           id="path1345"
           d="m 1000.5,433.53 -0.1,-0.11 v -0.12 l -0.1,-0.12 v -0.12 l -0.1,-0.13 v -0.12 l -0.1,-0.13 -0.1,-0.13 -0.03,-0.12 -0.07,-0.13 -0.08,-0.13 -0.09,-0.13 -0.08,-0.12 -0.1,-0.13 -0.1,-0.12 -0.1,-0.11 -0.1,-0.12 -0.11,-0.11 -0.12,-0.1 -0.11,-0.11 -0.13,-0.09 -0.12,-0.09 -0.13,-0.08 -0.14,-0.08 -0.13,-0.07 -0.14,-0.06 -0.15,-0.06 -0.15,-0.04 -0.15,-0.04 -0.16,-0.02 -0.16,-0.02 -0.16,-0.01 c -0.11,0 -1.16,0 -1.89,0.49 1.43,0.45 1.53,1.72 1.53,1.92 0,0.77 -0.6,1.3 -1.39,1.3 -0.97,0 -1.99,-0.85 -1.99,-2.14 0,-1.74 1.96,-2.53 3.66,-2.53 1.61,0 2.99,1 3.89,2.46 0.8,-1.84 2.8,-2.46 4.2,-2.46 4,0 6.1,4.34 6.1,5.32 0,0.46 -0.5,0.46 -0.6,0.46 -0.5,0 -0.5,-0.17 -0.6,-0.6 -0.8,-2.4 -2.9,-4.22 -4.8,-4.22 -1.4,0 -2.1,0.94 -2.1,2.27 0,0.91 0.8,4.08 1.8,7.95 0.7,2.68 2.2,3.55 3.4,3.55 0.1,0 1.1,0 1.9,-0.48 -1.1,-0.32 -1.5,-1.3 -1.5,-1.93 0,-0.76 0.5,-1.28 1.3,-1.28 0.9,0 2,0.66 2,2.13 0,1.95 -2.2,2.53 -3.6,2.53 -1.8,0 -3.2,-1.14 -3.9,-2.47 -0.7,1.44 -2.3,2.47 -4.2,2.47 -3.92,0 -6.15,-4.28 -6.15,-5.33 0,-0.45 0.5,-0.45 0.59,-0.45 0.46,0 0.49,0.14 0.68,0.59 0.86,2.72 3.06,4.22 4.78,4.22 1.1,0 2.1,-0.62 2.1,-2.3 0,-0.7 -0.4,-2.43 -0.8,-3.62 z"
           inkscape:connector-curvature="0"
           style="fill:#000000;stroke-width:0" /><path
           id="path1347"
           d="m 1021.7,430.4 v -0.36 -0.37 -0.38 l -0.1,-0.38 v -0.2 l -0.1,-0.19 v -0.2 -0.19 l -0.1,-0.2 v -0.2 l -0.1,-0.2 -0.1,-0.2 -0.1,-0.21 v -0.2 l -0.1,-0.2 -0.1,-0.21 -0.1,-0.2 -0.1,-0.21 -0.2,-0.2 -0.1,-0.21 -0.1,-0.21 -0.2,-0.21 -0.2,-0.2 -0.1,-0.21 -0.2,-0.21 -0.2,-0.21 -0.2,-0.2 -0.2,-0.21 c -0.2,-0.14 -0.3,-0.25 -0.3,-0.42 0,-0.25 0.3,-0.49 0.5,-0.49 0.5,0 3.5,2.78 3.5,6.92 0,2.17 -0.9,3.8 -2.5,3.8 -1.1,0 -2,-0.91 -2,-1.98 0,-1.11 0.8,-2.02 2.1,-2.02 0.8,0 1.4,0.56 1.4,0.56 z"
           inkscape:connector-curvature="0"
           style="fill:#000000;stroke-width:0" /><path
           id="path1349"
           d="m 1046.1,452.98 v 0 0.01 0 0.01 0 0.01 0 0.01 0.01 0.01 0.01 0.02 l 0.1,0.02 v 0.02 0.02 0.02 0.02 0.03 0.02 0.05 0.02 0.02 0.02 0.03 0.02 0.02 0.02 0.02 0.01 0.02 0.01 0 0.01 0.01 0 0.01 0 0.01 0 0 0.01 0 c 0,0.18 -0.1,0.5 -0.5,0.5 -0.7,0 -3.6,-0.28 -4.5,-0.36 -0.3,-0.03 -0.7,-0.06 -0.7,-0.8 0,-0.48 0.4,-0.48 0.9,-0.48 1.7,0 1.7,-0.25 1.7,-0.53 0,-0.24 -0.1,-0.46 -0.2,-0.77 l -2,-7.94 c -0.7,1.14 -1.9,2.05 -3.6,2.05 v -0.97 c 2.5,0 3.1,-2.64 3.1,-3.03 0,-0.14 0,-0.39 -0.1,-0.49 l -1.6,-6.51 c -0.3,-0.99 -1,-1.67 -1.8,-2.34 -0.3,-0.27 -1.7,-1.4 -3.2,-1.4 -1.3,0 -2.5,0.91 -2.5,3.38 0,1.86 1,5.69 1.8,7.08 1.6,2.79 3.4,3.31 4.3,3.31 v 0.97 c -4.4,0 -9,-4.91 -9,-9.92 0,-3.38 2.3,-5.78 5.3,-5.78 1.9,0 3.6,1.07 5,2.43 0.6,-2.09 2.6,-2.43 3.5,-2.43 1.3,0 2.2,0.76 2.8,1.84 0.8,1.36 1.2,3.34 1.2,3.48 0,0.46 -0.4,0.46 -0.5,0.46 -0.5,0 -0.6,-0.14 -0.8,-1.08 -0.4,-1.67 -1.1,-3.74 -2.6,-3.74 -0.9,0 -1.1,0.77 -1.1,1.71 0,0.67 0.1,0.98 0.2,1.44 z"
           inkscape:connector-curvature="0"
           style="fill:#000000;stroke-width:0" /><path
           id="path1351"
           d="m 1050.1,455.98 v 0 0 h -0.1 v 0 0 0 h -0.1 v -0.01 0 0 l -0.1,-0.01 v 0 -0.01 l -0.1,-0.01 v 0 -0.01 -0.01 l -0.1,-0.01 v -0.02 -0.01 -0.02 -0.02 l -0.1,-0.02 v -0.01 -0.01 -0.01 -0.01 -0.01 -0.02 -0.01 -0.01 -0.02 -0.01 -0.02 -0.01 -0.02 -0.02 -0.01 -0.02 -0.02 l -0.1,-0.02 c 0,-0.17 0.2,-0.28 0.4,-0.53 3,-2.75 6.3,-7.46 6.3,-16.44 0,-7.28 -2.3,-12.8 -6,-16.2 -0.6,-0.6 -0.7,-0.63 -0.7,-0.82 0,-0.17 0.2,-0.4 0.5,-0.4 0.4,0 3.7,2.29 6,6.65 1.6,2.89 2.6,6.66 2.6,10.74 0,4.9 -1.5,12.53 -8.4,17.42 z"
           inkscape:connector-curvature="0"
           style="fill:#000000;stroke-width:0" /><polyline
           id="polyline1353"
           points="725,417 1062.7,417 1062.7,419.04 725,419.04 "
           style="fill:#000000;fill-rule:nonzero;stroke-width:0" /><path
           id="path1355"
           d="m 901.4,394.9 h -1.19 c -0.1,-0.76 -0.46,-2.83 -0.91,-3.17 -0.27,-0.2 -2.95,-0.2 -3.44,-0.2 h -6.42 c 3.66,3.23 4.88,4.2 6.97,5.84 2.58,2.06 4.99,4.22 4.99,7.53 0,4.22 -3.69,6.8 -8.16,6.8 -4.31,0 -7.25,-3.03 -7.25,-6.24 0,-1.78 1.5,-1.95 1.86,-1.95 0.83,0 1.84,0.6 1.84,1.85 0,0.62 -0.25,1.84 -2.06,1.84 1.08,2.47 3.45,3.23 5.09,3.23 3.49,0 5.3,-2.7 5.3,-5.53 0,-3.03 -2.16,-5.44 -3.28,-6.69 l -8.39,-8.29 c -0.36,-0.31 -0.36,-0.39 -0.36,-1.36 h 14.36 z"
           inkscape:connector-curvature="0"
           style="fill:#000000;stroke-width:0" /></g>    </g>
    <g
       id="g1535"
       transform="translate(16.875968,36.075428)">
      <g
         word-spacing="normal"
         letter-spacing="normal"
         font-size-adjust="none"
         font-stretch="normal"
         font-weight="normal"
         font-variant="normal"
         font-style="normal"
         stroke-miterlimit="10.433"
         xml:space="preserve"
         transform="matrix(0.3,0,0,-0.3,-52.5,222.75)"
         id="g1533"
         style="font-style:normal;font-variant:normal;font-weight:normal;font-stretch:normal;letter-spacing:normal;word-spacing:normal;text-anchor:start;fill:none;fill-opacity:1;fill-rule:evenodd;stroke:#000000;stroke-linecap:butt;stroke-linejoin:miter;stroke-miterlimit:10.43299961;stroke-dasharray:none;stroke-dashoffset:0;stroke-opacity:1"><path
           id="path1439"
           d="m 481.22,439.75 v 0 0.01 0 0.01 0.02 0.01 0.02 0.02 l -0.01,0.02 v 0.02 l -0.01,0.02 v 0.02 l -0.01,0.02 -0.01,0.03 -0.01,0.02 -0.01,0.03 -0.02,0.02 -0.01,0.03 -0.02,0.02 -0.02,0.02 -0.02,0.03 -0.02,0.01 -0.01,0.01 -0.01,0.01 -0.02,0.01 -0.01,0.01 -0.02,0.01 -0.01,0.01 -0.02,0.01 -0.01,0.01 -0.02,0.01 h -0.02 l -0.02,0.01 -0.02,0.01 h -0.02 l -0.02,0.01 -0.03,0.01 h -0.02 -0.02 l -0.03,0.01 h -0.03 -0.02 l -0.03,0.01 h -0.03 -0.03 c -0.75,0 -5.48,-0.46 -6.33,-0.55 -0.4,-0.05 -0.7,-0.3 -0.7,-0.95 0,-0.6 0.45,-0.6 1.2,-0.6 2.39,0 2.49,-0.34 2.49,-0.84 l -0.14,-1 -3,-11.81 c -0.89,1.84 -2.35,3.18 -4.58,3.18 l 0.05,-1.09 c 3.23,0 3.93,-4.08 3.93,-4.37 0,-0.32 -0.09,-0.61 -0.14,-0.86 l -2.5,-9.77 c -0.25,-0.89 -0.25,-0.98 -1,-1.84 -2.18,-2.74 -4.23,-3.53 -5.62,-3.53 -2.49,0 -3.19,2.73 -3.19,4.68 0,2.49 1.59,8.61 2.74,10.91 1.54,2.94 3.79,4.78 5.78,4.78 l -0.05,1.09 c -5.83,0 -12,-7.31 -12,-14.59 0,-4.69 2.73,-7.97 6.62,-7.97 0.99,0 3.49,0.21 6.47,3.74 0.41,-2.1 2.14,-3.74 4.53,-3.74 1.75,0 2.9,1.14 3.69,2.74 0.85,1.79 1.5,4.84 1.5,4.93 0,0.5 -0.45,0.5 -0.59,0.5 -0.5,0 -0.55,-0.2 -0.7,-0.9 -0.85,-3.24 -1.75,-6.17 -3.79,-6.17 -1.34,0 -1.5,1.29 -1.5,2.29 0,1.19 0.1,1.55 0.3,2.39 z"
           inkscape:connector-curvature="0"
           style="fill:#000000;stroke-width:0" /><path
           id="path1441"
           d="m 495.59,436.86 v 0.09 0.09 l -0.01,0.09 -0.02,0.09 -0.02,0.09 -0.02,0.09 -0.02,0.08 -0.03,0.08 -0.04,0.08 -0.03,0.08 -0.04,0.07 -0.05,0.08 -0.05,0.07 -0.05,0.07 -0.05,0.06 -0.06,0.06 -0.06,0.06 -0.07,0.06 -0.06,0.05 -0.08,0.05 -0.07,0.05 -0.08,0.04 -0.08,0.04 -0.08,0.04 -0.09,0.03 -0.09,0.03 -0.09,0.02 -0.09,0.02 -0.1,0.02 -0.1,0.01 h -0.1 l -0.11,0.01 c -1.36,0 -2.7,-1.3 -2.7,-2.64 0,-0.96 0.7,-1.8 1.9,-1.8 1.14,0 2.64,1.14 2.64,2.64 z"
           inkscape:connector-curvature="0"
           style="fill:#000000;stroke-width:0" /><path
           id="path1443"
           d="m 491.8,418.12 0.05,0.14 0.05,0.12 0.05,0.12 0.04,0.11 0.05,0.1 0.04,0.1 0.03,0.09 0.04,0.09 0.03,0.09 0.03,0.08 0.03,0.08 0.03,0.08 0.03,0.07 0.03,0.07 0.05,0.15 0.05,0.14 0.05,0.14 0.03,0.07 0.03,0.08 0.02,0.08 0.03,0.08 0.03,0.08 0.04,0.09 0.03,0.1 0.03,0.09 0.04,0.11 0.04,0.11 0.05,0.11 0.04,0.13 c 0.41,1 0.66,1.68 0.66,2.64 0,2.23 -1.6,4.07 -4.1,4.07 -4.67,0 -6.57,-7.21 -6.57,-7.67 0,-0.5 0.5,-0.5 0.6,-0.5 0.5,0 0.55,0.11 0.8,0.91 1.34,4.69 3.33,6.17 5.03,6.17 0.39,0 1.25,0 1.25,-1.59 0,-1.05 -0.36,-2.1 -0.56,-2.6 -0.39,-1.29 -2.64,-7.06 -3.44,-9.22 -0.48,-1.28 -1.14,-2.93 -1.14,-3.98 0,-2.33 1.69,-4.08 4.1,-4.08 4.67,0 6.51,7.22 6.51,7.67 0,0.5 -0.44,0.5 -0.59,0.5 -0.5,0 -0.5,-0.15 -0.75,-0.9 -0.89,-3.13 -2.53,-6.17 -5.08,-6.17 -0.84,0 -1.2,0.5 -1.2,1.64 0,1.25 0.31,1.95 1.45,4.98 z"
           inkscape:connector-curvature="0"
           style="fill:#000000;stroke-width:0" /><path
           id="path1445"
           d="m 518.08,424.36 -0.13,-0.01 -0.13,-0.01 -0.13,-0.02 -0.12,-0.03 -0.12,-0.03 -0.11,-0.04 -0.12,-0.04 -0.11,-0.04 -0.11,-0.06 -0.1,-0.05 -0.1,-0.06 -0.1,-0.06 -0.09,-0.07 -0.09,-0.07 -0.08,-0.07 -0.08,-0.08 -0.08,-0.08 -0.07,-0.08 -0.07,-0.09 -0.07,-0.08 -0.06,-0.09 -0.05,-0.1 -0.05,-0.09 -0.05,-0.1 -0.04,-0.09 -0.03,-0.1 -0.03,-0.1 -0.03,-0.1 -0.02,-0.1 -0.01,-0.11 -0.01,-0.1 v -0.1 c 0,-0.7 0.43,-1.44 1.54,-1.44 1.1,0 2.29,0.85 2.29,2.78 0,2.25 -2.14,4.28 -5.93,4.28 -6.57,0 -8.42,-5.07 -8.42,-7.26 0,-3.89 3.69,-4.64 5.13,-4.94 2.59,-0.5 5.18,-1.05 5.18,-3.78 0,-1.3 -1.14,-5.48 -7.12,-5.48 -0.7,0 -4.53,0 -5.69,2.64 1.91,-0.25 3.14,1.25 3.14,2.64 0,1.14 -0.79,1.75 -1.84,1.75 -1.3,0 -2.78,-1.05 -2.78,-3.3 0,-2.84 2.84,-4.83 7.12,-4.83 8.07,0 10.02,6.03 10.02,8.27 0,1.79 -0.95,3.04 -1.55,3.64 -1.34,1.39 -2.8,1.64 -4.98,2.09 -1.8,0.39 -3.78,0.75 -3.78,2.99 0,1.45 1.18,4.48 5.57,4.48 1.24,0 3.74,-0.34 4.49,-2.28 z"
           inkscape:connector-curvature="0"
           style="fill:#000000;stroke-width:0" /><path
           id="path1447"
           d="m 532.26,425.64 h 4.69 c 0.98,0 1.48,0 1.48,1 0,0.55 -0.5,0.55 -1.39,0.55 h -4.39 c 1.8,7.08 2.05,8.08 2.05,8.37 0,0.85 -0.6,1.35 -1.44,1.35 -0.16,0 -1.55,-0.05 -2,-1.8 l -1.94,-7.92 h -4.69 c -1,0 -1.5,0 -1.5,-0.94 0,-0.61 0.41,-0.61 1.41,-0.61 h 4.37 c -3.57,-14.14 -3.78,-14.98 -3.78,-15.89 0,-2.69 1.89,-4.58 4.58,-4.58 5.08,0 7.92,7.27 7.92,7.67 0,0.5 -0.39,0.5 -0.59,0.5 -0.45,0 -0.5,-0.15 -0.75,-0.7 -2.14,-5.17 -4.78,-6.37 -6.47,-6.37 -1.05,0 -1.55,0.65 -1.55,2.29 0,1.19 0.1,1.55 0.3,2.39 z"
           inkscape:connector-curvature="0"
           style="fill:#000000;stroke-width:0" /><path
           id="path1449"
           d="m 556.48,393.77 v 0.02 0.03 l -0.01,0.01 v 0.02 0.01 l -0.01,0.02 v 0.01 l -0.01,0.02 -0.01,0.02 -0.01,0.02 -0.01,0.02 -0.01,0.03 -0.02,0.02 -0.02,0.03 -0.02,0.03 -0.02,0.03 -0.03,0.03 -0.03,0.04 -0.01,0.02 -0.02,0.02 -0.02,0.02 -0.02,0.02 -0.02,0.02 -0.02,0.02 -0.02,0.03 -0.02,0.02 -0.02,0.03 -0.03,0.02 -0.02,0.03 -0.03,0.03 -0.02,0.03 -0.03,0.02 -0.03,0.03 -0.03,0.04 -0.03,0.03 -0.03,0.03 -0.03,0.03 -0.04,0.04 -0.03,0.04 -0.04,0.03 -0.04,0.04 -0.04,0.04 c -6.22,6.28 -7.81,15.69 -7.81,23.31 0,8.67 1.89,17.35 8.02,23.56 0.64,0.61 0.64,0.71 0.64,0.86 0,0.35 -0.19,0.49 -0.49,0.49 -0.5,0 -4.98,-3.38 -7.92,-9.7 -2.55,-5.49 -3.14,-11.02 -3.14,-15.21 0,-3.89 0.55,-9.9 3.28,-15.55 2.99,-6.12 7.28,-9.35 7.78,-9.35 0.3,0 0.49,0.14 0.49,0.5 z"
           inkscape:connector-curvature="0"
           style="fill:#000000;stroke-width:0" /><path
           id="path1451"
           d="m 575.95,420.77 0.03,0.13 0.03,0.15 0.05,0.16 0.04,0.18 0.06,0.19 0.06,0.21 0.06,0.22 0.07,0.22 0.08,0.23 0.09,0.24 0.1,0.25 0.1,0.24 0.11,0.25 0.12,0.25 0.13,0.25 0.14,0.25 0.14,0.24 0.16,0.24 0.17,0.23 0.17,0.22 0.19,0.22 0.2,0.2 0.21,0.19 0.22,0.18 0.23,0.16 0.25,0.14 0.12,0.07 0.13,0.06 0.14,0.05 0.13,0.05 0.14,0.05 0.14,0.04 0.15,0.03 0.15,0.03 0.15,0.02 0.16,0.02 0.15,0.01 h 0.17 c 0.25,0 1.43,0 2.48,-0.64 -1.39,-0.25 -2.39,-1.5 -2.39,-2.69 0,-0.79 0.55,-1.75 1.89,-1.75 1.1,0 2.69,0.89 2.69,2.89 0,2.6 -2.94,3.28 -4.63,3.28 -2.89,0 -4.64,-2.64 -5.23,-3.78 -1.25,3.28 -3.94,3.78 -5.38,3.78 -5.18,0 -8.03,-6.42 -8.03,-7.67 0,-0.5 0.5,-0.5 0.61,-0.5 0.39,0 0.55,0.11 0.64,0.55 1.69,5.28 4.99,6.53 6.68,6.53 0.95,0 2.68,-0.44 2.68,-3.33 0,-1.54 -0.84,-4.89 -2.68,-11.86 -0.8,-3.09 -2.54,-5.18 -4.74,-5.18 -0.3,0 -1.44,0 -2.48,0.65 1.25,0.24 2.34,1.28 2.34,2.69 0,1.34 -1.09,1.73 -1.84,1.73 -1.5,0 -2.75,-1.29 -2.75,-2.89 0,-2.28 2.5,-3.28 4.68,-3.28 3.3,0 5.08,3.49 5.24,3.78 0.59,-1.84 2.39,-3.78 5.37,-3.78 5.14,0 7.99,6.42 7.99,7.67 0,0.5 -0.46,0.5 -0.61,0.5 -0.44,0 -0.55,-0.2 -0.64,-0.54 -1.64,-5.33 -5.03,-6.53 -6.63,-6.53 -1.95,0 -2.75,1.59 -2.75,3.29 0,1.1 0.3,2.19 0.86,4.38 z"
           inkscape:connector-curvature="0"
           style="fill:#000000;stroke-width:0" /><path
           id="path1453"
           d="m 597.85,405.77 v 0.3 l -0.01,0.3 -0.02,0.29 -0.02,0.28 -0.03,0.27 -0.04,0.26 -0.05,0.26 -0.05,0.24 -0.06,0.24 -0.06,0.23 -0.07,0.22 -0.08,0.21 -0.08,0.2 -0.09,0.19 -0.1,0.19 -0.1,0.17 -0.1,0.16 -0.11,0.16 -0.12,0.14 -0.13,0.13 -0.12,0.13 -0.14,0.11 -0.14,0.1 -0.14,0.1 -0.15,0.08 -0.15,0.07 -0.16,0.06 -0.16,0.05 -0.17,0.04 -0.17,0.03 -0.18,0.01 -0.18,0.01 c -1.64,0 -2.64,-1.25 -2.64,-2.64 0,-1.34 1,-2.64 2.64,-2.64 0.59,0 1.25,0.2 1.75,0.64 0.14,0.11 0.2,0.16 0.25,0.16 0.05,0 0.09,-0.05 0.09,-0.75 0,-3.69 -1.73,-6.68 -3.39,-8.32 -0.55,-0.54 -0.55,-0.65 -0.55,-0.79 0,-0.36 0.25,-0.55 0.5,-0.55 0.55,0 4.53,3.83 4.53,9.66 z"
           inkscape:connector-curvature="0"
           style="fill:#000000;stroke-width:0" /><path
           id="path1455"
           d="m 619.14,417.23 h 0.14 l 0.15,0.01 h 0.17 0.18 0.19 l 0.2,0.01 0.21,0.01 0.21,0.01 0.23,0.01 0.23,0.01 0.24,0.01 0.24,0.02 0.25,0.02 0.26,0.02 0.52,0.05 0.54,0.07 0.54,0.07 0.55,0.1 0.54,0.11 0.53,0.12 0.26,0.07 0.26,0.08 0.25,0.07 0.25,0.09 0.25,0.09 0.23,0.1 c 3.49,1.5 3.74,4.43 3.74,5.12 0,2.2 -1.9,4.23 -5.33,4.23 v -1.09 c 2.34,0 3.68,-1.44 3.68,-3.14 0,-5.17 -7.96,-5.17 -10.01,-5.17 h -2.05 c 1.96,7.56 7.08,8.31 8.38,8.31 v 1.09 c -5.53,0 -13.05,-4.82 -13.05,-13.54 0,-5.08 2.94,-9.02 7.81,-9.02 7.13,0 11.32,5.28 11.32,5.88 0,0.29 -0.3,0.65 -0.6,0.65 -0.25,0 -0.34,-0.11 -0.65,-0.5 -3.94,-4.93 -9.36,-4.93 -9.96,-4.93 -3.89,0 -4.34,4.18 -4.34,5.78 0,0.59 0.05,2.14 0.8,5.18 z"
           inkscape:connector-curvature="0"
           style="fill:#000000;stroke-width:0" /><path
           id="path1457"
           d="m 647.37,418.17 v 0.37 l -0.01,0.39 v 0.39 l -0.02,0.41 -0.04,0.84 -0.06,0.88 -0.08,0.92 -0.11,0.95 -0.13,0.97 -0.16,1.01 -0.2,1.02 -0.23,1.03 -0.27,1.05 -0.3,1.06 -0.35,1.07 -0.39,1.07 -0.22,0.53 -0.22,0.53 -0.24,0.53 -0.25,0.53 c -2.99,6.12 -7.27,9.36 -7.77,9.36 -0.29,0 -0.5,-0.19 -0.5,-0.49 0,-0.15 0,-0.25 0.94,-1.15 4.89,-4.92 7.74,-12.85 7.74,-23.27 0,-8.51 -1.85,-17.28 -8.03,-23.56 -0.65,-0.59 -0.65,-0.7 -0.65,-0.84 0,-0.3 0.21,-0.5 0.5,-0.5 0.5,0 4.97,3.39 7.93,9.71 2.53,5.47 3.12,11 3.12,15.19 z"
           inkscape:connector-curvature="0"
           style="fill:#000000;stroke-width:0" /><path
           id="path1459"
           d="m 700.57,422.02 h 0.14 0.14 0.15 l 0.07,0.01 h 0.07 l 0.08,0.01 0.07,0.01 0.07,0.01 0.07,0.01 0.07,0.01 0.06,0.02 0.07,0.02 0.06,0.02 0.06,0.02 0.06,0.03 0.05,0.03 0.06,0.04 0.05,0.03 0.04,0.05 0.05,0.04 0.04,0.05 0.02,0.03 0.01,0.03 0.02,0.02 0.02,0.03 0.01,0.03 0.01,0.04 0.01,0.03 0.02,0.04 0.01,0.03 v 0.04 l 0.01,0.04 0.01,0.04 v 0.04 l 0.01,0.04 v 0.04 0.05 c 0,1 -0.96,1 -1.64,1 h -29.85 c -0.7,0 -1.64,0 -1.64,-1 0,-0.98 0.94,-0.98 1.69,-0.98 z"
           inkscape:connector-curvature="0"
           style="fill:#000000;stroke-width:0" /><path
           id="path1461"
           d="m 700.62,412.34 h 0.06 0.07 l 0.14,0.01 h 0.13 0.07 l 0.07,0.01 0.07,0.01 h 0.07 l 0.07,0.01 0.07,0.02 0.07,0.01 0.06,0.02 0.06,0.02 0.07,0.02 0.06,0.02 0.05,0.03 0.06,0.03 0.05,0.04 0.05,0.04 0.05,0.04 0.04,0.05 0.02,0.02 0.02,0.03 0.02,0.02 0.01,0.03 0.02,0.03 0.02,0.03 0.01,0.03 0.01,0.03 0.01,0.04 0.02,0.03 0.01,0.04 v 0.04 l 0.01,0.04 0.01,0.04 v 0.04 l 0.01,0.04 v 0.05 0.04 c 0,1 -0.96,1 -1.69,1 h -29.75 c -0.75,0 -1.69,0 -1.69,-1 0,-1 0.94,-1 1.64,-1 z"
           inkscape:connector-curvature="0"
           style="fill:#000000;stroke-width:0" /><path
           id="path1463"
           d="m 731.69,454.62 v 0.05 0.05 0.05 0.06 l -0.01,0.05 v 0.06 0.05 l -0.01,0.06 v 0.06 l -0.01,0.05 -0.01,0.06 -0.01,0.06 -0.01,0.05 -0.01,0.06 -0.02,0.05 -0.02,0.05 -0.02,0.05 -0.02,0.05 -0.03,0.05 -0.03,0.05 -0.03,0.04 -0.04,0.04 -0.04,0.04 -0.02,0.01 -0.02,0.02 -0.02,0.02 -0.02,0.01 -0.03,0.02 -0.02,0.01 -0.03,0.01 -0.03,0.01 -0.03,0.01 -0.03,0.01 -0.03,0.01 -0.03,0.01 -0.03,0.01 h -0.04 -0.03 l -0.04,0.01 h -0.04 -0.04 c -0.87,0 -0.87,-0.81 -0.87,-1.36 v -32.14 c 0,-0.52 0,-1.36 0.84,-1.36 0.88,0 0.88,0.81 0.88,1.36 z"
           inkscape:connector-curvature="0"
           style="fill:#000000;stroke-width:0" /><path
           id="path1465"
           d="m 752.07,443.18 -0.12,-0.02 -0.11,-0.02 -0.11,-0.03 -0.1,-0.04 -0.1,-0.03 -0.1,-0.05 -0.09,-0.04 -0.09,-0.05 -0.08,-0.05 -0.08,-0.06 -0.07,-0.05 -0.07,-0.06 -0.07,-0.06 -0.06,-0.07 -0.06,-0.06 -0.06,-0.07 -0.05,-0.07 -0.05,-0.07 -0.04,-0.08 -0.05,-0.07 -0.03,-0.07 -0.04,-0.08 -0.03,-0.07 -0.02,-0.08 -0.03,-0.08 -0.02,-0.07 -0.02,-0.08 -0.01,-0.07 -0.01,-0.08 -0.01,-0.07 v -0.08 l -0.01,-0.07 c 0,-0.94 0.74,-1.28 1.37,-1.28 0.76,0 1.98,0.55 1.98,2.22 0,2.37 -2.72,3.03 -4.6,3.03 -5.23,0 -10.07,-4.8 -10.07,-9.64 0,-3 2.09,-6.06 6.45,-6.06 5.89,0 8.64,3.43 8.64,3.93 0,0.21 -0.31,0.6 -0.59,0.6 -0.21,0 -0.28,-0.08 -0.56,-0.36 -2.72,-3.21 -6.8,-3.21 -7.43,-3.21 -2.5,0 -3.62,1.71 -3.62,3.88 0,1 0.5,4.8 2.31,7.2 1.31,1.72 3.12,2.69 4.87,2.69 0.49,0 2.16,-0.06 3.04,-1.05 z"
           inkscape:connector-curvature="0"
           style="fill:#000000;stroke-width:0" /><path
           id="path1467"
           d="m 761.32,454.62 v 0.05 0.05 0.05 0.06 0.05 0.06 0.05 l -0.01,0.06 v 0.06 l -0.01,0.05 -0.01,0.06 -0.01,0.06 -0.01,0.05 -0.02,0.06 -0.01,0.05 -0.02,0.05 -0.02,0.05 -0.03,0.05 -0.02,0.05 -0.03,0.05 -0.03,0.04 -0.04,0.04 -0.04,0.04 -0.02,0.01 -0.02,0.02 -0.02,0.02 -0.03,0.01 -0.02,0.02 -0.03,0.01 -0.03,0.01 -0.02,0.01 -0.03,0.01 -0.03,0.01 -0.03,0.01 -0.03,0.01 -0.04,0.01 h -0.03 -0.04 l -0.03,0.01 h -0.04 -0.04 c -0.88,0 -0.88,-0.81 -0.88,-1.36 v -32.14 c 0,-0.52 0,-1.36 0.85,-1.36 0.87,0 0.87,0.81 0.87,1.36 z"
           inkscape:connector-curvature="0"
           style="fill:#000000;stroke-width:0" /><path
           id="path1469"
           d="m 786.33,452.98 v 0 0.01 0 l 0.01,0.01 v 0 0.01 0 l 0.01,0.01 v 0.01 0.01 l 0.01,0.01 v 0.02 l 0.01,0.02 0.01,0.02 v 0.02 l 0.01,0.02 v 0.02 l 0.01,0.03 v 0.02 l 0.02,0.05 v 0.02 l 0.01,0.02 v 0.02 l 0.01,0.03 v 0.02 l 0.01,0.02 v 0.02 0.02 l 0.01,0.01 v 0.02 0.01 0 0.01 0.01 h 0.01 v 0.01 0 0.01 0 0 0.01 0 c 0,0.18 -0.14,0.5 -0.55,0.5 -0.7,0 -3.59,-0.28 -4.47,-0.36 -0.28,-0.03 -0.76,-0.06 -0.76,-0.8 0,-0.48 0.48,-0.48 0.9,-0.48 1.68,0 1.68,-0.25 1.68,-0.53 0,-0.24 -0.07,-0.46 -0.15,-0.77 l -1.98,-7.94 c -0.73,1.14 -1.92,2.05 -3.59,2.05 v -0.97 c 2.43,0 3.11,-2.64 3.11,-3.03 0,-0.14 -0.08,-0.39 -0.11,-0.49 l -1.64,-6.51 c -0.24,-0.99 -1,-1.67 -1.77,-2.34 -0.31,-0.27 -1.72,-1.4 -3.22,-1.4 -1.28,0 -2.53,0.91 -2.53,3.38 0,1.86 1,5.69 1.81,7.08 1.6,2.79 3.38,3.31 4.35,3.31 v 0.97 c -4.46,0 -8.99,-4.91 -8.99,-9.92 0,-3.38 2.27,-5.78 5.27,-5.78 1.87,0 3.55,1.07 4.94,2.43 0.67,-2.09 2.68,-2.43 3.59,-2.43 1.25,0 2.12,0.76 2.75,1.84 0.77,1.36 1.22,3.34 1.22,3.48 0,0.46 -0.45,0.46 -0.55,0.46 -0.5,0 -0.53,-0.14 -0.76,-1.08 -0.43,-1.67 -1.1,-3.74 -2.55,-3.74 -0.91,0 -1.16,0.77 -1.16,1.71 0,0.67 0.08,0.98 0.17,1.44 z"
           inkscape:connector-curvature="0"
           style="fill:#000000;stroke-width:0" /><path
           id="path1471"
           d="m 798.49,451.62 v 0.05 0.06 l -0.01,0.05 -0.01,0.06 -0.01,0.05 -0.01,0.06 -0.02,0.05 -0.02,0.06 -0.02,0.06 -0.03,0.05 -0.02,0.06 -0.03,0.05 -0.04,0.06 -0.03,0.05 -0.04,0.05 -0.04,0.05 -0.05,0.05 -0.04,0.05 -0.05,0.04 -0.06,0.04 -0.05,0.04 -0.06,0.04 -0.06,0.04 -0.07,0.03 -0.07,0.03 -0.07,0.02 -0.07,0.03 -0.08,0.01 -0.08,0.02 -0.09,0.01 -0.08,0.01 h -0.09 c -0.94,0 -1.96,-0.91 -1.96,-1.92 0,-0.6 0.46,-1.33 1.41,-1.33 1,0 1.95,0.98 1.95,1.92 z"
           inkscape:connector-curvature="0"
           style="fill:#000000;stroke-width:0" /><path
           id="path1473"
           d="m 791.38,433.92 -0.05,-0.17 -0.06,-0.17 -0.02,-0.08 -0.03,-0.09 -0.02,-0.09 -0.03,-0.08 -0.02,-0.09 -0.02,-0.09 -0.02,-0.1 -0.01,-0.09 -0.01,-0.1 -0.01,-0.05 v -0.06 l -0.01,-0.05 v -0.05 -0.06 -0.05 c 0,-1.64 1.39,-2.95 3.3,-2.95 3.48,0 5.03,4.79 5.03,5.32 0,0.46 -0.45,0.46 -0.56,0.46 -0.49,0 -0.54,-0.21 -0.68,-0.6 -0.79,-2.78 -2.32,-4.22 -3.68,-4.22 -0.71,0 -0.88,0.46 -0.88,1.22 0,0.8 0.25,1.47 0.56,2.24 0.35,0.94 0.74,1.87 1.11,2.78 0.32,0.84 1.58,4.01 1.72,4.44 0.1,0.34 0.21,0.76 0.21,1.11 0,1.64 -1.4,2.95 -3.32,2.95 -3.45,0 -5.04,-4.74 -5.04,-5.33 0,-0.45 0.48,-0.45 0.59,-0.45 0.48,0 0.52,0.17 0.62,0.56 0.91,3 2.44,4.25 3.72,4.25 0.57,0 0.88,-0.28 0.88,-1.22 0,-0.8 -0.2,-1.33 -1.08,-3.48 z"
           inkscape:connector-curvature="0"
           style="fill:#000000;stroke-width:0" /><path
           id="path1475"
           d="m 816.25,442.93 -0.08,-0.02 -0.09,-0.02 -0.08,-0.03 -0.07,-0.03 -0.08,-0.03 -0.07,-0.03 -0.07,-0.04 -0.07,-0.04 -0.07,-0.04 -0.06,-0.04 -0.06,-0.05 -0.06,-0.05 -0.06,-0.05 -0.05,-0.05 -0.06,-0.05 -0.04,-0.06 -0.05,-0.05 -0.04,-0.06 -0.04,-0.06 -0.04,-0.06 -0.04,-0.06 -0.03,-0.06 -0.03,-0.06 -0.03,-0.07 -0.02,-0.06 -0.02,-0.06 -0.02,-0.07 -0.01,-0.06 -0.01,-0.07 -0.01,-0.06 -0.01,-0.07 v -0.06 c 0,-0.81 0.7,-1.13 1.16,-1.13 0.34,0 1.67,0.22 1.67,1.99 0,2.26 -2.5,3.03 -4.63,3.03 -5.43,0 -6.42,-4 -6.42,-5.08 0,-1.3 0.74,-2.12 1.22,-2.55 0.91,-0.7 1.53,-0.82 3.94,-1.25 0.73,-0.14 2.97,-0.56 2.97,-2.29 0,-0.6 -0.39,-1.92 -1.85,-2.8 -1.36,-0.77 -3.07,-0.77 -3.48,-0.77 -1.41,0 -3.39,0.32 -4.19,1.47 1.16,0.14 1.92,1 1.92,1.99 0,0.87 -0.62,1.28 -1.36,1.28 -1.01,0 -2.03,-0.8 -2.03,-2.33 0,-2.09 2.24,-3.37 5.61,-3.37 6.42,0 7.61,4.39 7.61,5.75 0,3.2 -3.53,3.82 -4.81,4.07 -0.31,0.07 -1.19,0.21 -1.39,0.27 -1.3,0.25 -1.92,0.98 -1.92,1.75 0,0.8 0.62,1.73 1.39,2.23 0.93,0.6 2.15,0.66 2.75,0.66 0.73,0 2.54,-0.11 3.31,-1.3 z"
           inkscape:connector-curvature="0"
           style="fill:#000000;stroke-width:0" /><path
           id="path1477"
           d="m 828.65,443.61 h 3.55 c 0.65,0 1.11,0 1.11,0.76 0,0.49 -0.46,0.49 -1.03,0.49 h -3.31 l 1.28,5.15 c 0.03,0.17 0.1,0.35 0.1,0.49 0,0.64 -0.48,1.12 -1.18,1.12 -0.88,0 -1.39,-0.59 -1.64,-1.5 -0.24,-0.87 0.22,0.8 -1.33,-5.26 h -3.55 c -0.65,0 -1.11,0 -1.11,-0.77 0,-0.48 0.41,-0.48 1.05,-0.48 h 3.3 l -2.05,-8.22 c -0.22,-0.88 -0.53,-2.13 -0.53,-2.58 0,-2.06 1.75,-3.31 3.73,-3.31 3.88,0 6.06,4.87 6.06,5.32 0,0.46 -0.45,0.46 -0.56,0.46 -0.4,0 -0.45,-0.08 -0.72,-0.66 -0.98,-2.2 -2.76,-4.16 -4.67,-4.16 -0.73,0 -1.22,0.46 -1.22,1.71 0,0.36 0.14,1.09 0.21,1.44 z"
           inkscape:connector-curvature="0"
           style="fill:#000000;stroke-width:0" /><path
           id="path1479"
           d="m 847.45,455.98 -0.61,-0.45 -0.58,-0.46 -0.55,-0.47 -0.52,-0.49 -0.5,-0.5 -0.47,-0.51 -0.45,-0.53 -0.42,-0.53 -0.4,-0.54 -0.38,-0.55 -0.35,-0.56 -0.33,-0.56 -0.31,-0.57 -0.29,-0.57 -0.27,-0.58 -0.24,-0.58 -0.23,-0.58 -0.21,-0.58 -0.19,-0.59 -0.17,-0.58 -0.16,-0.58 -0.14,-0.58 -0.12,-0.57 -0.11,-0.57 -0.09,-0.57 -0.08,-0.56 -0.07,-0.55 -0.05,-0.54 -0.04,-0.54 -0.02,-0.53 -0.02,-0.51 -0.01,-0.51 c 0,-4.92 1.47,-12.55 8.38,-17.42 0.28,0 0.69,0 0.69,0.4 0,0.22 -0.1,0.29 -0.35,0.54 -4.64,4.18 -6.34,10.1 -6.34,16.45 0,9.4 3.59,14 6.45,16.58 0.14,0.14 0.24,0.25 0.24,0.42 0,0.42 -0.41,0.42 -0.69,0.42 z"
           inkscape:connector-curvature="0"
           style="fill:#000000;stroke-width:0" /><path
           id="path1481"
           d="m 859.34,433.53 -0.03,-0.11 -0.04,-0.12 -0.04,-0.12 -0.05,-0.12 -0.06,-0.13 -0.05,-0.12 -0.07,-0.13 -0.06,-0.13 -0.07,-0.12 -0.08,-0.13 -0.08,-0.13 -0.08,-0.13 -0.09,-0.12 -0.1,-0.13 -0.09,-0.12 -0.11,-0.11 -0.1,-0.12 -0.11,-0.11 -0.12,-0.1 -0.11,-0.11 -0.13,-0.09 -0.12,-0.09 -0.13,-0.08 -0.14,-0.08 -0.13,-0.07 -0.14,-0.06 -0.15,-0.06 -0.15,-0.04 -0.15,-0.04 -0.16,-0.02 -0.16,-0.02 -0.16,-0.01 c -0.11,0 -1.16,0 -1.89,0.49 1.43,0.45 1.53,1.72 1.53,1.92 0,0.77 -0.6,1.3 -1.39,1.3 -0.97,0 -1.99,-0.85 -1.99,-2.14 0,-1.74 1.96,-2.53 3.66,-2.53 1.61,0 3.03,1 3.91,2.46 0.82,-1.84 2.75,-2.46 4.14,-2.46 4.01,0 6.14,4.34 6.14,5.32 0,0.46 -0.46,0.46 -0.57,0.46 -0.48,0 -0.51,-0.17 -0.65,-0.6 -0.74,-2.4 -2.83,-4.22 -4.78,-4.22 -1.39,0 -2.13,0.94 -2.13,2.27 0,0.91 0.85,4.08 1.82,7.95 0.7,2.68 2.26,3.55 3.42,3.55 0.06,0 1.14,0 1.87,-0.48 -1.11,-0.32 -1.53,-1.3 -1.53,-1.93 0,-0.76 0.59,-1.28 1.39,-1.28 0.81,0 1.95,0.66 1.95,2.13 0,1.95 -2.23,2.53 -3.62,2.53 -1.74,0 -3.14,-1.14 -3.91,-2.47 -0.62,1.44 -2.22,2.47 -4.17,2.47 -3.9,0 -6.14,-4.28 -6.14,-5.33 0,-0.45 0.5,-0.45 0.59,-0.45 0.46,0 0.49,0.14 0.68,0.59 0.86,2.72 3.06,4.22 4.76,4.22 1.16,0 2.1,-0.62 2.1,-2.3 0,-0.7 -0.43,-2.43 -0.74,-3.62 z"
           inkscape:connector-curvature="0"
           style="fill:#000000;stroke-width:0" /><path
           id="path1483"
           d="m 880.59,430.4 v -0.36 l -0.02,-0.37 -0.03,-0.38 -0.04,-0.38 -0.03,-0.2 -0.04,-0.19 -0.03,-0.2 -0.05,-0.19 -0.05,-0.2 -0.05,-0.2 -0.07,-0.2 -0.06,-0.2 -0.08,-0.21 -0.08,-0.2 -0.09,-0.2 -0.1,-0.21 -0.11,-0.2 -0.11,-0.21 -0.13,-0.2 -0.13,-0.21 -0.14,-0.21 -0.15,-0.21 -0.16,-0.2 -0.17,-0.21 -0.19,-0.21 -0.19,-0.21 -0.2,-0.2 -0.22,-0.21 c -0.14,-0.14 -0.25,-0.25 -0.25,-0.42 0,-0.25 0.28,-0.49 0.48,-0.49 0.49,0 3.46,2.78 3.46,6.92 0,2.17 -0.84,3.8 -2.44,3.8 -1.15,0 -1.98,-0.91 -1.98,-1.98 0,-1.11 0.79,-2.02 2.01,-2.02 0.85,0 1.39,0.56 1.44,0.56 z"
           inkscape:connector-curvature="0"
           style="fill:#000000;stroke-width:0" /><path
           id="path1485"
           d="m 900.38,443.18 -0.12,-0.02 -0.11,-0.02 -0.11,-0.03 -0.11,-0.04 -0.09,-0.03 -0.1,-0.05 -0.09,-0.04 -0.09,-0.05 -0.08,-0.05 -0.08,-0.06 -0.07,-0.05 -0.07,-0.06 -0.07,-0.06 -0.07,-0.07 -0.05,-0.06 -0.06,-0.07 -0.05,-0.07 -0.05,-0.07 -0.05,-0.08 -0.04,-0.07 -0.03,-0.07 -0.04,-0.08 -0.03,-0.07 -0.03,-0.08 -0.02,-0.08 -0.02,-0.07 -0.02,-0.08 -0.01,-0.07 -0.01,-0.08 -0.01,-0.07 v -0.08 l -0.01,-0.07 c 0,-0.94 0.74,-1.28 1.36,-1.28 0.77,0 1.99,0.55 1.99,2.22 0,2.37 -2.72,3.03 -4.6,3.03 -5.23,0 -10.07,-4.8 -10.07,-9.64 0,-3 2.09,-6.06 6.45,-6.06 5.89,0 8.64,3.43 8.64,3.93 0,0.21 -0.31,0.6 -0.59,0.6 -0.21,0 -0.29,-0.08 -0.57,-0.36 -2.72,-3.21 -6.79,-3.21 -7.42,-3.21 -2.5,0 -3.62,1.71 -3.62,3.88 0,1 0.5,4.8 2.31,7.2 1.31,1.72 3.12,2.69 4.87,2.69 0.49,0 2.16,-0.06 3.04,-1.05 z"
           inkscape:connector-curvature="0"
           style="fill:#000000;stroke-width:0" /><path
           id="path1487"
           d="m 906.01,455.98 h -0.03 -0.02 -0.03 -0.02 -0.03 -0.03 -0.02 l -0.03,-0.01 h -0.03 -0.03 l -0.03,-0.01 h -0.02 l -0.03,-0.01 -0.03,-0.01 h -0.03 l -0.02,-0.01 -0.03,-0.01 -0.02,-0.01 -0.02,-0.02 -0.03,-0.01 -0.02,-0.02 -0.02,-0.02 -0.02,-0.02 -0.01,-0.01 v -0.01 l -0.01,-0.01 -0.01,-0.01 -0.01,-0.01 v -0.02 l -0.01,-0.01 -0.01,-0.01 v -0.02 l -0.01,-0.01 v -0.02 -0.01 l -0.01,-0.02 v -0.02 -0.01 -0.02 -0.02 -0.02 c 0,-0.17 0.11,-0.28 0.31,-0.53 3,-2.75 6.34,-7.46 6.34,-16.44 0,-7.28 -2.26,-12.8 -6.03,-16.2 -0.58,-0.6 -0.62,-0.63 -0.62,-0.82 0,-0.17 0.11,-0.4 0.45,-0.4 0.42,0 3.73,2.29 6.03,6.65 1.53,2.89 2.55,6.66 2.55,10.74 0,4.9 -1.47,12.53 -8.36,17.42 z"
           inkscape:connector-curvature="0"
           style="fill:#000000;stroke-width:0" /><path
           id="path1489"
           d="m 934.6,437.71 h 10.66 c 0.46,0 1.28,0 1.28,0.85 0,0.86 -0.79,0.86 -1.28,0.86 H 934.6 v 10.7 c 0,0.45 0,1.28 -0.84,1.28 -0.87,0 -0.87,-0.79 -0.87,-1.28 v -10.7 H 922.2 c -0.45,0 -1.3,0 -1.3,-0.83 0,-0.88 0.8,-0.88 1.3,-0.88 h 10.69 v -10.7 c 0,-0.45 0,-1.28 0.84,-1.28 0.87,0 0.87,0.8 0.87,1.28 z"
           inkscape:connector-curvature="0"
           style="fill:#000000;stroke-width:0" /><path
           id="path1491"
           d="m 955.83,454.62 v 0.05 0.05 0.05 0.06 l -0.01,0.05 v 0.06 0.05 l -0.01,0.06 v 0.06 l -0.01,0.05 -0.01,0.06 -0.01,0.06 -0.01,0.05 -0.01,0.06 -0.02,0.05 -0.02,0.05 -0.02,0.05 -0.02,0.05 -0.03,0.05 -0.03,0.05 -0.03,0.04 -0.04,0.04 -0.04,0.04 -0.02,0.01 -0.02,0.02 -0.02,0.02 -0.02,0.01 -0.03,0.02 -0.02,0.01 -0.03,0.01 -0.03,0.01 -0.03,0.01 -0.03,0.01 -0.03,0.01 -0.03,0.01 -0.03,0.01 h -0.04 -0.03 l -0.04,0.01 h -0.04 -0.04 c -0.87,0 -0.87,-0.81 -0.87,-1.36 v -32.14 c 0,-0.52 0,-1.36 0.84,-1.36 0.88,0 0.88,0.81 0.88,1.36 z"
           inkscape:connector-curvature="0"
           style="fill:#000000;stroke-width:0" /><path
           id="path1493"
           d="m 980.83,452.98 v 0 l 0.01,0.01 v 0 0.01 0 l 0.01,0.01 v 0 0.01 0.01 l 0.01,0.01 v 0.01 l 0.01,0.02 v 0.02 l 0.01,0.02 0.01,0.02 v 0.02 l 0.01,0.02 v 0.03 l 0.01,0.02 0.01,0.05 0.01,0.02 v 0.02 l 0.01,0.02 v 0.03 l 0.01,0.02 v 0.02 0.02 l 0.01,0.02 v 0.01 0.02 l 0.01,0.01 v 0 0.01 0.01 0 0.01 0 0.01 0 0 0.01 0 c 0,0.18 -0.14,0.5 -0.54,0.5 -0.71,0 -3.6,-0.28 -4.47,-0.36 -0.28,-0.03 -0.77,-0.06 -0.77,-0.8 0,-0.48 0.49,-0.48 0.91,-0.48 1.67,0 1.67,-0.25 1.67,-0.53 0,-0.24 -0.06,-0.46 -0.14,-0.77 l -1.98,-7.94 c -0.74,1.14 -1.93,2.05 -3.6,2.05 v -0.97 c 2.44,0 3.11,-2.64 3.11,-3.03 0,-0.14 -0.08,-0.39 -0.11,-0.49 l -1.64,-6.51 c -0.23,-0.99 -1,-1.67 -1.76,-2.34 -0.32,-0.27 -1.72,-1.4 -3.22,-1.4 -1.28,0 -2.53,0.91 -2.53,3.38 0,1.86 1,5.69 1.81,7.08 1.59,2.79 3.37,3.31 4.34,3.31 v 0.97 c -4.45,0 -8.98,-4.91 -8.98,-9.92 0,-3.38 2.26,-5.78 5.26,-5.78 1.88,0 3.55,1.07 4.94,2.43 0.67,-2.09 2.69,-2.43 3.59,-2.43 1.25,0 2.13,0.76 2.75,1.84 0.77,1.36 1.22,3.34 1.22,3.48 0,0.46 -0.45,0.46 -0.55,0.46 -0.5,0 -0.53,-0.14 -0.76,-1.08 -0.42,-1.67 -1.09,-3.74 -2.55,-3.74 -0.9,0 -1.15,0.77 -1.15,1.71 0,0.67 0.08,0.98 0.17,1.44 z"
           inkscape:connector-curvature="0"
           style="fill:#000000;stroke-width:0" /><path
           id="path1495"
           d="m 988.47,454.62 v 0.05 l -0.01,0.05 v 0.05 0.06 0.05 0.06 0.05 l -0.01,0.06 v 0.06 l -0.01,0.05 -0.01,0.06 -0.01,0.06 -0.01,0.05 -0.02,0.06 -0.01,0.05 -0.02,0.05 -0.02,0.05 -0.03,0.05 -0.02,0.05 -0.03,0.05 -0.03,0.04 -0.04,0.04 -0.04,0.04 -0.02,0.01 -0.02,0.02 -0.02,0.02 -0.03,0.01 -0.02,0.02 -0.03,0.01 -0.02,0.01 -0.03,0.01 -0.03,0.01 -0.03,0.01 -0.03,0.01 -0.03,0.01 -0.04,0.01 h -0.03 -0.04 l -0.03,0.01 h -0.04 -0.04 c -0.87,0 -0.87,-0.81 -0.87,-1.36 v -32.14 c 0,-0.52 0,-1.36 0.84,-1.36 0.88,0 0.88,0.81 0.88,1.36 z"
           inkscape:connector-curvature="0"
           style="fill:#000000;stroke-width:0" /><path
           id="path1497"
           d="m 1013.5,452.98 v 0 0.01 0 0.01 0 0.01 0 0.01 0.01 0.01 0.01 0.02 0.02 0.02 0.02 0.02 0.02 0.03 0.02 l 0.1,0.05 v 0.02 0.02 0.02 0.03 0.02 0.02 0.02 0.02 0.01 0.02 0.01 0 0.01 0.01 0 0.01 0 0.01 0 0 0.01 0 c 0,0.18 -0.1,0.5 -0.5,0.5 -0.7,0 -3.6,-0.28 -4.5,-0.36 -0.3,-0.03 -0.8,-0.06 -0.8,-0.8 0,-0.48 0.5,-0.48 0.9,-0.48 1.7,0 1.7,-0.25 1.7,-0.53 0,-0.24 -0.1,-0.46 -0.1,-0.77 l -2,-7.94 c -0.8,1.14 -1.9,2.05 -3.6,2.05 v -0.97 c 2.4,0 3.1,-2.64 3.1,-3.03 0,-0.14 -0.1,-0.39 -0.1,-0.49 l -1.7,-6.51 c -0.2,-0.99 -1,-1.67 -1.7,-2.34 -0.3,-0.27 -1.7,-1.4 -3.2,-1.4 -1.32,0 -2.57,0.91 -2.57,3.38 0,1.86 1,5.69 1.77,7.08 1.6,2.79 3.4,3.31 4.4,3.31 v 0.97 c -4.5,0 -9,-4.91 -9,-9.92 0,-3.38 2.27,-5.78 5.3,-5.78 1.8,0 3.5,1.07 4.9,2.43 0.7,-2.09 2.7,-2.43 3.6,-2.43 1.3,0 2.1,0.76 2.7,1.84 0.8,1.36 1.3,3.34 1.3,3.48 0,0.46 -0.5,0.46 -0.6,0.46 -0.5,0 -0.5,-0.14 -0.7,-1.08 -0.5,-1.67 -1.1,-3.74 -2.6,-3.74 -0.9,0 -1.1,0.77 -1.1,1.71 0,0.67 0,0.98 0.1,1.44 z"
           inkscape:connector-curvature="0"
           style="fill:#000000;stroke-width:0" /><path
           id="path1499"
           d="m 1025.6,451.62 v 0.05 0.06 0.05 0.06 0.05 0.06 0.05 l -0.1,0.06 v 0.06 0.05 0.06 l -0.1,0.05 v 0.06 0.05 l -0.1,0.05 v 0.05 0.05 l -0.1,0.05 v 0.04 l -0.1,0.04 -0.1,0.04 v 0.04 l -0.1,0.04 v 0.03 l -0.1,0.03 -0.1,0.02 -0.1,0.03 v 0.01 l -0.1,0.02 -0.1,0.01 -0.1,0.01 h -0.1 c -0.9,0 -1.9,-0.91 -1.9,-1.92 0,-0.6 0.4,-1.33 1.4,-1.33 1,0 1.9,0.98 1.9,1.92 z"
           inkscape:connector-curvature="0"
           style="fill:#000000;stroke-width:0" /><path
           id="path1501"
           d="m 1018.5,433.92 v -0.17 l -0.1,-0.17 v -0.08 -0.09 l -0.1,-0.09 v -0.08 -0.09 -0.09 -0.1 l -0.1,-0.09 v -0.1 -0.05 -0.06 -0.05 -0.05 -0.06 -0.05 c 0,-1.64 1.4,-2.95 3.3,-2.95 3.5,0 5,4.79 5,5.32 0,0.46 -0.4,0.46 -0.5,0.46 -0.5,0 -0.6,-0.21 -0.7,-0.6 -0.8,-2.78 -2.3,-4.22 -3.7,-4.22 -0.7,0 -0.9,0.46 -0.9,1.22 0,0.8 0.3,1.47 0.6,2.24 0.4,0.94 0.7,1.87 1.1,2.78 0.3,0.84 1.6,4.01 1.7,4.44 0.1,0.34 0.2,0.76 0.2,1.11 0,1.64 -1.3,2.95 -3.3,2.95 -3.4,0 -5,-4.74 -5,-5.33 0,-0.45 0.5,-0.45 0.6,-0.45 0.4,0 0.5,0.17 0.6,0.56 0.9,3 2.4,4.25 3.7,4.25 0.6,0 0.9,-0.28 0.9,-1.22 0,-0.8 -0.2,-1.33 -1.1,-3.48 z"
           inkscape:connector-curvature="0"
           style="fill:#000000;stroke-width:0" /><path
           id="path1503"
           d="m 1043.4,442.93 -0.1,-0.02 -0.1,-0.02 -0.1,-0.03 v -0.03 l -0.1,-0.03 -0.1,-0.03 -0.1,-0.04 v -0.04 l -0.1,-0.04 -0.1,-0.04 v -0.05 l -0.1,-0.05 v -0.05 l -0.1,-0.05 v -0.05 l -0.1,-0.06 v -0.05 l -0.1,-0.06 v -0.06 l -0.1,-0.06 v -0.06 -0.06 l -0.1,-0.06 v -0.07 -0.06 -0.06 -0.07 l -0.1,-0.06 v -0.07 -0.06 -0.07 -0.06 c 0,-0.81 0.7,-1.13 1.2,-1.13 0.3,0 1.7,0.22 1.7,1.99 0,2.26 -2.6,3.03 -4.7,3.03 -5.4,0 -6.4,-4 -6.4,-5.08 0,-1.3 0.7,-2.12 1.2,-2.55 0.9,-0.7 1.5,-0.82 4,-1.25 0.7,-0.14 2.9,-0.56 2.9,-2.29 0,-0.6 -0.4,-1.92 -1.8,-2.8 -1.4,-0.77 -3.1,-0.77 -3.5,-0.77 -1.4,0 -3.4,0.32 -4.2,1.47 1.2,0.14 1.9,1 1.9,1.99 0,0.87 -0.6,1.28 -1.3,1.28 -1,0 -2.1,-0.8 -2.1,-2.33 0,-2.09 2.3,-3.37 5.6,-3.37 6.5,0 7.7,4.39 7.7,5.75 0,3.2 -3.6,3.82 -4.9,4.07 -0.3,0.07 -1.1,0.21 -1.3,0.27 -1.3,0.25 -2,0.98 -2,1.75 0,0.8 0.7,1.73 1.4,2.23 1,0.6 2.2,0.66 2.8,0.66 0.7,0 2.5,-0.11 3.3,-1.3 z"
           inkscape:connector-curvature="0"
           style="fill:#000000;stroke-width:0" /><path
           id="path1505"
           d="m 1055.8,443.61 h 3.5 c 0.7,0 1.1,0 1.1,0.76 0,0.49 -0.4,0.49 -1,0.49 h -3.3 l 1.3,5.15 c 0,0.17 0.1,0.35 0.1,0.49 0,0.64 -0.5,1.12 -1.2,1.12 -0.9,0 -1.4,-0.59 -1.6,-1.5 -0.3,-0.87 0.2,0.8 -1.4,-5.26 h -3.5 c -0.7,0 -1.1,0 -1.1,-0.77 0,-0.48 0.4,-0.48 1,-0.48 h 3.3 l -2,-8.22 c -0.2,-0.88 -0.6,-2.13 -0.6,-2.58 0,-2.06 1.8,-3.31 3.8,-3.31 3.9,0 6,4.87 6,5.32 0,0.46 -0.4,0.46 -0.5,0.46 -0.4,0 -0.5,-0.08 -0.7,-0.66 -1,-2.2 -2.8,-4.16 -4.7,-4.16 -0.7,0 -1.2,0.46 -1.2,1.71 0,0.36 0.1,1.09 0.2,1.44 z"
           inkscape:connector-curvature="0"
           style="fill:#000000;stroke-width:0" /><path
           id="path1507"
           d="m 1074.6,455.98 -0.6,-0.45 -0.6,-0.46 -0.5,-0.47 -0.6,-0.49 -0.5,-0.5 -0.4,-0.51 -0.5,-0.53 -0.4,-0.53 -0.4,-0.54 -0.4,-0.55 -0.3,-0.56 -0.4,-0.56 -0.3,-0.57 -0.3,-0.57 -0.2,-0.58 -0.3,-0.58 -0.2,-0.58 -0.2,-0.58 -0.2,-0.59 -0.2,-0.58 -0.1,-0.58 -0.2,-0.58 -0.1,-0.57 -0.1,-0.57 -0.1,-0.57 -0.1,-0.56 v -0.55 l -0.1,-0.54 v -0.54 l -0.1,-0.53 v -0.51 -0.51 c 0,-4.92 1.5,-12.55 8.4,-17.42 0.3,0 0.7,0 0.7,0.4 0,0.22 -0.1,0.29 -0.4,0.54 -4.6,4.18 -6.3,10.1 -6.3,16.45 0,9.4 3.6,14 6.4,16.58 0.2,0.14 0.3,0.25 0.3,0.42 0,0.42 -0.4,0.42 -0.7,0.42 z"
           inkscape:connector-curvature="0"
           style="fill:#000000;stroke-width:0" /><path
           id="path1509"
           d="m 1086.5,433.53 -0.1,-0.11 v -0.12 -0.12 l -0.1,-0.12 v -0.13 l -0.1,-0.12 -0.1,-0.13 v -0.13 l -0.1,-0.12 -0.1,-0.13 -0.1,-0.13 v -0.13 l -0.1,-0.12 -0.1,-0.13 -0.1,-0.12 -0.1,-0.11 -0.1,-0.12 -0.1,-0.11 -0.1,-0.1 -0.2,-0.11 -0.1,-0.09 -0.1,-0.09 -0.1,-0.08 -0.2,-0.08 -0.1,-0.07 -0.2,-0.06 -0.1,-0.06 -0.1,-0.04 -0.2,-0.04 -0.2,-0.02 -0.1,-0.02 -0.2,-0.01 c -0.1,0 -1.1,0 -1.9,0.49 1.5,0.45 1.6,1.72 1.6,1.92 0,0.77 -0.6,1.3 -1.4,1.3 -1,0 -2,-0.85 -2,-2.14 0,-1.74 1.9,-2.53 3.6,-2.53 1.7,0 3.1,1 4,2.46 0.8,-1.84 2.7,-2.46 4.1,-2.46 4,0 6.1,4.34 6.1,5.32 0,0.46 -0.4,0.46 -0.5,0.46 -0.5,0 -0.6,-0.17 -0.7,-0.6 -0.7,-2.4 -2.8,-4.22 -4.8,-4.22 -1.4,0 -2.1,0.94 -2.1,2.27 0,0.91 0.9,4.08 1.8,7.95 0.7,2.68 2.3,3.55 3.4,3.55 0.1,0 1.2,0 1.9,-0.48 -1.1,-0.32 -1.5,-1.3 -1.5,-1.93 0,-0.76 0.6,-1.28 1.4,-1.28 0.8,0 1.9,0.66 1.9,2.13 0,1.95 -2.2,2.53 -3.6,2.53 -1.7,0 -3.1,-1.14 -3.9,-2.47 -0.6,1.44 -2.2,2.47 -4.2,2.47 -3.9,0 -6.1,-4.28 -6.1,-5.33 0,-0.45 0.5,-0.45 0.6,-0.45 0.4,0 0.5,0.14 0.7,0.59 0.8,2.72 3,4.22 4.7,4.22 1.2,0 2.1,-0.62 2.1,-2.3 0,-0.7 -0.4,-2.43 -0.7,-3.62 z"
           inkscape:connector-curvature="0"
           style="fill:#000000;stroke-width:0" /><path
           id="path1511"
           d="m 1107.7,430.4 v -0.36 -0.37 -0.38 l -0.1,-0.38 v -0.2 -0.19 l -0.1,-0.2 v -0.19 l -0.1,-0.2 v -0.2 l -0.1,-0.2 v -0.2 l -0.1,-0.21 -0.1,-0.2 -0.1,-0.2 -0.1,-0.21 -0.1,-0.2 -0.1,-0.21 -0.1,-0.2 -0.2,-0.21 -0.1,-0.21 -0.2,-0.21 -0.1,-0.2 -0.2,-0.21 -0.2,-0.21 -0.2,-0.21 -0.2,-0.2 -0.2,-0.21 c -0.1,-0.14 -0.2,-0.25 -0.2,-0.42 0,-0.25 0.2,-0.49 0.4,-0.49 0.5,0 3.5,2.78 3.5,6.92 0,2.17 -0.8,3.8 -2.4,3.8 -1.2,0 -2,-0.91 -2,-1.98 0,-1.11 0.8,-2.02 2,-2.02 0.8,0 1.4,0.56 1.4,0.56 z"
           inkscape:connector-curvature="0"
           style="fill:#000000;stroke-width:0" /><path
           id="path1513"
           d="m 1132.1,452.98 v 0 0.01 0 0.01 h 0.1 v 0.01 0 0.01 0.01 0.01 0.01 0.02 0.02 0.02 0.02 0.02 0.02 0.03 0.02 0.05 0.02 0.02 0.02 0.03 l 0.1,0.02 v 0.02 0.02 0.02 0.01 0.02 0.01 0 0.01 0.01 0 0.01 0 0.01 0 0 0.01 0 c 0,0.18 -0.2,0.5 -0.6,0.5 -0.7,0 -3.6,-0.28 -4.4,-0.36 -0.3,-0.03 -0.8,-0.06 -0.8,-0.8 0,-0.48 0.5,-0.48 0.9,-0.48 1.7,0 1.7,-0.25 1.7,-0.53 0,-0.24 -0.1,-0.46 -0.2,-0.77 l -2,-7.94 c -0.7,1.14 -1.9,2.05 -3.5,2.05 v -0.97 c 2.4,0 3.1,-2.64 3.1,-3.03 0,-0.14 -0.1,-0.39 -0.1,-0.49 l -1.7,-6.51 c -0.2,-0.99 -1,-1.67 -1.8,-2.34 -0.3,-0.27 -1.7,-1.4 -3.2,-1.4 -1.3,0 -2.5,0.91 -2.5,3.38 0,1.86 1,5.69 1.8,7.08 1.6,2.79 3.4,3.31 4.4,3.31 v 0.97 c -4.5,0 -9,-4.91 -9,-9.92 0,-3.38 2.2,-5.78 5.2,-5.78 1.9,0 3.6,1.07 5,2.43 0.6,-2.09 2.7,-2.43 3.6,-2.43 1.2,0 2.1,0.76 2.7,1.84 0.8,1.36 1.2,3.34 1.2,3.48 0,0.46 -0.4,0.46 -0.5,0.46 -0.5,0 -0.5,-0.14 -0.8,-1.08 -0.4,-1.67 -1.1,-3.74 -2.5,-3.74 -0.9,0 -1.2,0.77 -1.2,1.71 0,0.67 0.1,0.98 0.2,1.44 z"
           inkscape:connector-curvature="0"
           style="fill:#000000;stroke-width:0" /><path
           id="path1515"
           d="m 1136.2,455.98 h -0.1 v 0 0 h -0.1 v 0 0 0 l -0.1,-0.01 v 0 0 -0.01 h -0.1 v -0.01 -0.01 h -0.1 v -0.01 -0.01 -0.01 l -0.1,-0.02 v -0.01 -0.02 -0.02 -0.02 -0.01 l -0.1,-0.01 v -0.01 -0.01 -0.01 -0.02 -0.01 -0.01 -0.02 -0.01 -0.02 -0.01 -0.02 -0.02 -0.01 -0.02 -0.02 -0.02 c 0,-0.17 0.1,-0.28 0.3,-0.53 3,-2.75 6.3,-7.46 6.3,-16.44 0,-7.28 -2.2,-12.8 -6,-16.2 -0.6,-0.6 -0.6,-0.63 -0.6,-0.82 0,-0.17 0.1,-0.4 0.4,-0.4 0.4,0 3.8,2.29 6.1,6.65 1.5,2.89 2.5,6.66 2.5,10.74 0,4.9 -1.5,12.53 -8.3,17.42 z"
           inkscape:connector-curvature="0"
           style="fill:#000000;stroke-width:0" /><polyline
           id="polyline1517"
           points="725,417 1148.5,417 1148.5,419.04 725,419.04 "
           style="fill:#000000;fill-rule:nonzero;stroke-width:0" /><path
           id="path1519"
           d="m 885.16,413.34 v 0.05 0.05 0.05 0.06 0.05 0.06 0.05 l -0.01,0.06 v 0.06 l -0.01,0.05 -0.01,0.06 -0.01,0.06 -0.01,0.05 -0.02,0.06 -0.01,0.05 -0.02,0.05 -0.02,0.05 -0.03,0.05 -0.02,0.05 -0.03,0.04 -0.03,0.05 -0.04,0.04 -0.04,0.03 -0.02,0.02 -0.02,0.02 -0.02,0.02 -0.03,0.01 -0.02,0.01 -0.03,0.02 -0.03,0.01 -0.02,0.01 -0.03,0.01 -0.03,0.01 -0.03,0.01 -0.03,0.01 h -0.04 l -0.03,0.01 h -0.04 l -0.03,0.01 h -0.04 -0.04 c -0.87,0 -0.87,-0.81 -0.87,-1.36 V 381.2 c 0,-0.52 0,-1.36 0.84,-1.36 0.87,0 0.87,0.81 0.87,1.36 z"
           inkscape:connector-curvature="0"
           style="fill:#000000;stroke-width:0" /><path
           id="path1521"
           d="m 905.54,401.9 -0.11,-0.02 -0.12,-0.02 -0.1,-0.03 -0.11,-0.04 -0.1,-0.04 -0.09,-0.04 -0.09,-0.04 -0.09,-0.05 -0.08,-0.05 -0.08,-0.06 -0.08,-0.05 -0.07,-0.06 -0.06,-0.07 -0.07,-0.06 -0.06,-0.07 -0.05,-0.06 -0.05,-0.07 -0.05,-0.07 -0.05,-0.08 -0.04,-0.07 -0.04,-0.07 -0.03,-0.08 -0.03,-0.08 -0.03,-0.07 -0.02,-0.08 -0.02,-0.07 -0.02,-0.08 -0.01,-0.08 -0.01,-0.07 -0.01,-0.08 -0.01,-0.07 v -0.07 c 0,-0.94 0.74,-1.28 1.36,-1.28 0.77,0 1.98,0.54 1.98,2.22 0,2.37 -2.71,3.03 -4.59,3.03 -5.23,0 -10.08,-4.8 -10.08,-9.64 0,-3 2.1,-6.07 6.46,-6.07 5.89,0 8.64,3.44 8.64,3.94 0,0.21 -0.31,0.6 -0.6,0.6 -0.2,0 -0.28,-0.08 -0.56,-0.36 -2.72,-3.21 -6.8,-3.21 -7.42,-3.21 -2.5,0 -3.63,1.71 -3.63,3.88 0,1 0.5,4.8 2.32,7.2 1.31,1.72 3.12,2.69 4.87,2.69 0.49,0 2.16,-0.06 3.03,-1.05 z"
           inkscape:connector-curvature="0"
           style="fill:#000000;stroke-width:0" /><path
           id="path1523"
           d="m 914.8,413.34 v 0.05 0.05 0.05 0.06 0.05 0.06 l -0.01,0.05 v 0.06 l -0.01,0.06 v 0.05 l -0.01,0.06 -0.01,0.06 -0.02,0.05 -0.01,0.06 -0.02,0.05 -0.01,0.05 -0.03,0.05 -0.02,0.05 -0.03,0.05 -0.03,0.04 -0.03,0.05 -0.03,0.04 -0.04,0.03 -0.02,0.02 -0.03,0.02 -0.02,0.02 -0.02,0.01 -0.03,0.01 -0.02,0.02 -0.03,0.01 -0.03,0.01 -0.02,0.01 -0.03,0.01 -0.04,0.01 -0.03,0.01 h -0.03 l -0.03,0.01 h -0.04 l -0.04,0.01 H 914 913.96 c -0.88,0 -0.88,-0.81 -0.88,-1.36 V 381.2 c 0,-0.52 0,-1.36 0.85,-1.36 0.87,0 0.87,0.81 0.87,1.36 z"
           inkscape:connector-curvature="0"
           style="fill:#000000;stroke-width:0" /><path
           id="path1525"
           d="m 936.05,396.43 h 10.66 c 0.45,0 1.28,0 1.28,0.85 0,0.86 -0.79,0.86 -1.28,0.86 h -10.66 v 10.7 c 0,0.45 0,1.28 -0.84,1.28 -0.87,0 -0.87,-0.8 -0.87,-1.28 v -10.7 h -10.69 c -0.45,0 -1.3,0 -1.3,-0.83 0,-0.88 0.8,-0.88 1.3,-0.88 h 10.69 v -10.7 c 0,-0.45 0,-1.28 0.84,-1.28 0.87,0 0.87,0.8 0.87,1.28 z"
           inkscape:connector-curvature="0"
           style="fill:#000000;stroke-width:0" /><path
           id="path1527"
           d="m 957.28,413.34 v 0.05 0.05 0.05 0.06 l -0.01,0.05 v 0.06 0.05 l -0.01,0.06 v 0.06 l -0.01,0.05 -0.01,0.06 -0.01,0.06 -0.01,0.05 -0.01,0.06 -0.02,0.05 -0.02,0.05 -0.02,0.05 -0.02,0.05 -0.03,0.05 -0.03,0.04 -0.03,0.05 -0.04,0.04 -0.04,0.03 -0.02,0.02 -0.02,0.02 -0.02,0.02 -0.02,0.01 -0.03,0.01 -0.03,0.02 -0.02,0.01 -0.03,0.01 -0.03,0.01 -0.03,0.01 -0.03,0.01 -0.03,0.01 h -0.03 l -0.04,0.01 h -0.03 l -0.04,0.01 h -0.04 -0.04 c -0.87,0 -0.87,-0.81 -0.87,-1.36 V 381.2 c 0,-0.52 0,-1.36 0.84,-1.36 0.88,0 0.88,0.81 0.88,1.36 z"
           inkscape:connector-curvature="0"
           style="fill:#000000;stroke-width:0" /><path
           id="path1529"
           d="m 982.28,411.7 v 0 l 0.01,0.01 v 0 0.01 0 l 0.01,0.01 v 0 0.01 0.01 h 0.01 v 0.02 l 0.01,0.02 v 0.02 l 0.01,0.02 v 0.02 l 0.01,0.02 0.01,0.02 v 0.02 l 0.01,0.03 0.01,0.04 v 0.03 l 0.01,0.02 v 0.02 l 0.01,0.03 v 0.02 l 0.01,0.02 v 0.02 l 0.01,0.02 v 0.01 0.02 0.01 h 0.01 v 0.01 0.01 0 0.01 0 0.01 0 0 0 0.01 c 0,0.18 -0.14,0.5 -0.54,0.5 -0.71,0 -3.6,-0.29 -4.47,-0.36 -0.29,-0.03 -0.77,-0.07 -0.77,-0.8 0,-0.48 0.48,-0.48 0.91,-0.48 1.67,0 1.67,-0.25 1.67,-0.54 0,-0.23 -0.06,-0.45 -0.14,-0.76 l -1.99,-7.94 c -0.73,1.14 -1.92,2.05 -3.59,2.05 v -0.97 c 2.44,0 3.11,-2.64 3.11,-3.03 0,-0.14 -0.08,-0.39 -0.11,-0.49 l -1.64,-6.51 c -0.24,-0.99 -1,-1.67 -1.77,-2.35 -0.31,-0.26 -1.71,-1.39 -3.21,-1.39 -1.29,0 -2.54,0.91 -2.54,3.38 0,1.86 1,5.69 1.82,7.08 1.59,2.79 3.37,3.31 4.34,3.31 v 0.97 c -4.45,0 -8.98,-4.91 -8.98,-9.92 0,-3.38 2.26,-5.79 5.26,-5.79 1.88,0 3.55,1.08 4.94,2.44 0.67,-2.09 2.69,-2.44 3.59,-2.44 1.25,0 2.13,0.77 2.75,1.85 0.77,1.36 1.22,3.34 1.22,3.48 0,0.46 -0.45,0.46 -0.55,0.46 -0.5,0 -0.53,-0.14 -0.76,-1.08 -0.42,-1.67 -1.09,-3.74 -2.55,-3.74 -0.9,0 -1.15,0.77 -1.15,1.71 0,0.67 0.07,0.98 0.17,1.43 z"
           inkscape:connector-curvature="0"
           style="fill:#000000;stroke-width:0" /><path
           id="path1531"
           d="m 989.91,413.34 v 0.05 0.05 0.05 0.06 0.05 0.06 0.05 l -0.01,0.06 v 0.06 l -0.01,0.05 -0.01,0.06 -0.01,0.06 -0.01,0.05 -0.02,0.06 -0.01,0.05 -0.02,0.05 -0.02,0.05 -0.03,0.05 -0.02,0.05 -0.03,0.04 -0.03,0.05 -0.04,0.04 -0.04,0.03 -0.02,0.02 -0.02,0.02 -0.02,0.02 -0.03,0.01 -0.02,0.01 -0.03,0.02 -0.03,0.01 -0.02,0.01 -0.03,0.01 -0.03,0.01 -0.03,0.01 -0.03,0.01 h -0.04 l -0.03,0.01 h -0.04 l -0.03,0.01 h -0.04 -0.04 c -0.87,0 -0.87,-0.81 -0.87,-1.36 V 381.2 c 0,-0.52 0,-1.36 0.84,-1.36 0.87,0 0.87,0.81 0.87,1.36 z"
           inkscape:connector-curvature="0"
           style="fill:#000000;stroke-width:0" /></g>    </g>
    <g
       id="g2558"
       transform="translate(-72.285379,-8.6153138)">
      <g
         word-spacing="normal"
         letter-spacing="normal"
         font-size-adjust="none"
         font-stretch="normal"
         font-weight="normal"
         font-variant="normal"
         font-style="normal"
         stroke-miterlimit="10.433"
         xml:space="preserve"
         transform="matrix(0.3,0,0,-0.3,-52.5,222.75)"
         id="g2556"
         style="font-style:normal;font-variant:normal;font-weight:normal;font-stretch:normal;letter-spacing:normal;word-spacing:normal;text-anchor:start;fill:none;fill-opacity:1;fill-rule:evenodd;stroke:#000000;stroke-linecap:butt;stroke-linejoin:miter;stroke-miterlimit:10.43299961;stroke-dasharray:none;stroke-dashoffset:0;stroke-opacity:1"><path
           id="path2542"
           d="m 501.21,434.45 0.23,0.4 0.24,0.4 0.24,0.38 0.24,0.37 0.13,0.18 0.13,0.17 0.14,0.17 0.13,0.16 0.14,0.16 0.15,0.16 0.15,0.15 0.16,0.14 0.16,0.14 0.17,0.13 0.17,0.13 0.18,0.12 0.19,0.11 0.19,0.11 0.2,0.1 0.21,0.09 0.22,0.09 0.23,0.08 0.24,0.07 0.25,0.06 0.25,0.05 0.27,0.05 0.28,0.04 0.29,0.02 c 0.45,0.05 0.95,0.05 0.95,1 0,0.19 -0.2,0.55 -0.61,0.55 -1.19,0 -2.58,-0.16 -3.83,-0.16 -1.7,0 -3.55,0.16 -5.19,0.16 -0.29,0 -0.93,0 -0.93,-0.95 0,-0.55 0.43,-0.6 0.73,-0.6 1.2,-0.04 2.95,-0.45 2.95,-1.93 0,-0.55 -0.25,-0.96 -0.65,-1.66 l -13.46,-23.45 -1.84,24.7 c -0.05,1 -0.14,2.3 3.48,2.34 0.86,0 1.36,0 1.36,1 0,0.5 -0.56,0.55 -0.75,0.55 -2,0 -4.09,-0.16 -6.07,-0.16 -1.16,0 -4.1,0.16 -5.24,0.16 -0.3,0 -0.95,0 -0.95,-1 0,-0.55 0.5,-0.55 1.2,-0.55 2.19,0 2.53,-0.29 2.64,-1.25 l 0.3,-3.82 -12.61,-21.97 -1.89,25.25 c 0,0.59 0,1.75 3.78,1.79 0.5,0 1.05,0 1.05,1 0,0.55 -0.6,0.55 -0.69,0.55 -2,0 -4.09,-0.16 -6.13,-0.16 -1.75,0 -3.54,0.16 -5.23,0.16 -0.25,0 -0.91,0 -0.91,-0.95 0,-0.6 0.46,-0.6 1.25,-0.6 2.5,0 2.55,-0.45 2.64,-1.84 l 2.25,-30.44 c 0.05,-0.9 0.1,-1.29 0.8,-1.29 0.6,0 0.74,0.29 1.19,1.04 l 14.66,25.41 1.84,-25.16 c 0.09,-1.04 0.19,-1.29 0.8,-1.29 0.64,0 0.93,0.5 1.18,0.93 z"
           inkscape:connector-curvature="0"
           style="fill:#000000;stroke-width:0" /><path
           id="path2544"
           d="m 524.61,421.95 0.21,1.28 3.39,13.56 c 0.44,1.74 0.54,1.89 2.69,1.89 h 4.78 c 4.14,0 6.78,-1.34 6.78,-4.78 0,-1.95 -1,-6.23 -2.94,-8.03 -2.5,-2.23 -5.49,-2.64 -7.69,-2.64 h -7.01 l -0.21,-1.28 h 8.47 c 7.08,0 14,5.17 14,10.75 0,3.84 -3.28,7.53 -9.81,7.53 h -16.14 c -0.95,0 -1.5,0 -1.5,-0.95 0,-0.6 0.45,-0.6 1.45,-0.6 0.64,0 1.55,-0.04 2.14,-0.09 0.8,-0.11 1.1,-0.25 1.1,-0.8 0,-0.2 -0.05,-0.36 -0.21,-0.95 l -6.67,-26.75 c -0.5,-1.95 -0.59,-2.34 -4.53,-2.34 -0.84,0 -1.39,0 -1.39,-0.96 0,-0.59 0.59,-0.59 0.73,-0.59 1.41,0 4.94,0.16 6.33,0.16 1.05,0 2.14,-0.07 3.19,-0.07 1.11,0 2.2,-0.09 3.25,-0.09 0.34,0 0.98,0 0.98,1 0,0.55 -0.43,0.55 -1.39,0.55 -1.84,0 -3.23,0 -3.23,0.89 0,0.29 0.09,0.54 0.14,0.84 z"
           inkscape:connector-curvature="0"
           style="fill:#000000;stroke-width:0" /><path
           id="path2546"
           d="m 586.38,440.82 v 0.02 0.02 0.01 l -0.01,0.02 v 0.02 0.02 l -0.01,0.02 v 0.02 l -0.01,0.02 -0.01,0.02 -0.01,0.02 v 0.02 l -0.02,0.02 -0.01,0.02 -0.01,0.02 -0.01,0.02 -0.02,0.02 -0.02,0.02 -0.02,0.02 -0.02,0.02 -0.02,0.01 -0.02,0.02 -0.03,0.01 -0.02,0.02 -0.03,0.01 -0.01,0.01 h -0.02 l -0.01,0.01 h -0.02 l -0.02,0.01 h -0.01 -0.02 l -0.02,0.01 h -0.02 -0.02 -0.02 -0.02 -0.02 -0.02 c -0.14,0 -0.2,-0.04 -0.75,-0.59 l -3.48,-3.84 c -0.44,0.7 -2.74,4.43 -8.27,4.43 -11.11,0 -22.33,-11.01 -22.33,-22.56 0,-7.92 5.53,-13.65 13.61,-13.65 2.19,0 4.44,0.45 6.22,1.18 2.5,1 3.44,2.05 4.35,3.05 0.45,-1.25 1.73,-3.09 2.23,-3.09 0.25,0 0.36,0.15 0.36,0.2 0.09,0.09 0.59,1.98 0.84,3.03 l 0.94,3.84 c 0.2,0.85 0.45,1.69 0.66,2.55 0.54,2.24 0.59,2.33 3.44,2.39 0.25,0 0.79,0.05 0.79,0.99 0,0.36 -0.25,0.54 -0.64,0.54 -1.15,0 -4.09,-0.14 -5.23,-0.14 -1.55,0 -5.44,0.14 -6.99,0.14 -0.43,0 -1.05,0 -1.05,-0.98 0,-0.55 0.41,-0.55 1.5,-0.55 0.05,0 1.5,0 2.65,-0.11 1.29,-0.14 1.54,-0.29 1.54,-0.94 0,-0.45 -0.54,-2.7 -1.04,-4.53 -1.4,-5.48 -7.88,-6.03 -9.63,-6.03 -4.78,0 -10,2.83 -10,10.46 0,1.54 0.48,9.76 5.72,16.25 2.69,3.39 7.53,6.42 12.45,6.42 5.1,0 8.03,-3.83 8.03,-9.61 0,-2 -0.15,-2.05 -0.15,-2.55 0,-0.5 0.55,-0.5 0.75,-0.5 0.64,0 0.64,0.11 0.89,1 z"
           inkscape:connector-curvature="0"
           style="fill:#000000;stroke-width:0" /><path
           id="path2548"
           d="m 633.78,436.39 0.04,0.16 0.04,0.16 0.03,0.15 0.04,0.14 0.04,0.14 0.04,0.13 0.05,0.12 0.05,0.11 0.05,0.11 0.05,0.11 0.06,0.09 0.07,0.09 0.07,0.09 0.08,0.08 0.09,0.07 0.1,0.07 0.11,0.06 0.12,0.06 0.13,0.05 0.14,0.05 0.15,0.04 0.08,0.02 0.09,0.02 0.09,0.02 0.09,0.02 0.1,0.01 0.1,0.02 0.1,0.01 0.11,0.01 0.11,0.02 0.11,0.01 0.12,0.01 h 0.13 l 0.13,0.01 0.13,0.01 0.14,0.01 h 0.14 0.15 l 0.15,0.01 h 0.16 0.16 0.17 0.17 c 1.14,0 1.59,0 1.59,1 0,0.55 -0.5,0.55 -1.34,0.55 h -6.58 c -1.3,0 -1.34,0 -1.94,-0.95 l -18.19,-28.39 -3.88,28.18 c -0.16,1.16 -0.25,1.16 -1.55,1.16 h -6.83 c -0.94,0 -1.49,0 -1.49,-0.95 0,-0.6 0.44,-0.6 1.44,-0.6 0.66,0 1.55,-0.04 2.14,-0.09 0.8,-0.11 1.1,-0.25 1.1,-0.8 0,-0.2 -0.05,-0.36 -0.19,-0.95 l -6.33,-25.36 c -0.5,-2 -1.34,-3.59 -5.39,-3.73 -0.25,0 -0.89,-0.05 -0.89,-0.96 0,-0.43 0.3,-0.59 0.7,-0.59 1.6,0 3.33,0.16 4.97,0.16 1.7,0 3.5,-0.16 5.14,-0.16 0.25,0 0.89,0 0.89,1 0,0.55 -0.54,0.55 -0.89,0.55 -2.84,0.04 -3.39,1.04 -3.39,2.18 0,0.35 0.05,0.6 0.2,1.14 l 6.77,27.16 h 0.06 l 4.29,-30.89 c 0.09,-0.59 0.13,-1.14 0.75,-1.14 0.54,0 0.84,0.55 1.09,0.89 l 20.12,31.55 h 0.05 l -7.13,-28.55 c -0.5,-1.95 -0.59,-2.34 -4.53,-2.34 -0.84,0 -1.39,0 -1.39,-0.96 0,-0.59 0.6,-0.59 0.75,-0.59 1.39,0 4.79,0.16 6.17,0.16 2.05,0 4.19,-0.16 6.24,-0.16 0.3,0 0.94,0 0.94,1 0,0.55 -0.46,0.55 -1.39,0.55 -1.85,0 -3.24,0 -3.24,0.89 0,0.2 0,0.29 0.25,1.2 z"
           inkscape:connector-curvature="0"
           style="fill:#000000;stroke-width:0" /><path
           id="path2550"
           d="m 650.32,411.93 -0.19,-0.3 -0.19,-0.29 -0.19,-0.28 -0.18,-0.26 -0.19,-0.25 -0.18,-0.23 -0.19,-0.22 -0.19,-0.21 -0.18,-0.2 -0.19,-0.18 -0.19,-0.17 -0.18,-0.16 -0.19,-0.15 -0.19,-0.14 -0.19,-0.13 -0.19,-0.12 -0.19,-0.11 -0.19,-0.1 -0.19,-0.09 -0.19,-0.09 -0.19,-0.07 -0.19,-0.07 -0.2,-0.07 -0.19,-0.05 -0.2,-0.05 -0.19,-0.04 -0.2,-0.04 -0.2,-0.03 -0.4,-0.05 -0.41,-0.03 c -0.61,-0.05 -1.04,-0.05 -1.04,-1 0,-0.3 0.25,-0.55 0.63,-0.55 1.35,0 2.9,0.16 4.29,0.16 1.64,0 3.39,-0.16 4.98,-0.16 0.3,0 0.95,0 0.95,0.95 0,0.55 -0.45,0.6 -0.79,0.6 -1.16,0.09 -2.35,0.5 -2.35,1.73 0,0.61 0.3,1.16 0.69,1.84 l 3.8,6.39 h 12.5 l -0.14,1.54 h -11.43 l 9.83,16.45 1.6,-16.45 0.14,-1.54 c 0.11,-1.04 0.8,-7.82 0.8,-8.32 0,-1.5 -2.6,-1.64 -3.58,-1.64 -0.71,0 -1.21,0 -1.21,-1 0,-0.55 0.6,-0.55 0.71,-0.55 2.03,0 4.18,0.16 6.21,0.16 1.25,0 4.4,-0.16 5.65,-0.16 0.29,0 0.89,0 0.89,1 0,0.55 -0.5,0.55 -1.14,0.55 -3.1,0 -3.1,0.34 -3.25,1.79 l -3.03,31.13 c -0.12,1 -0.12,1.2 -0.96,1.2 -0.79,0 -0.98,-0.34 -1.29,-0.84 z"
           inkscape:connector-curvature="0"
           style="fill:#000000;stroke-width:0" /><path
           id="path2552"
           d="m 702.07,425.03 v 0.13 l -0.01,0.14 -0.02,0.13 -0.02,0.13 -0.03,0.13 -0.04,0.12 -0.04,0.12 -0.04,0.12 -0.06,0.12 -0.06,0.11 -0.06,0.11 -0.07,0.11 -0.07,0.1 -0.08,0.1 -0.08,0.1 -0.09,0.09 -0.09,0.09 -0.1,0.08 -0.1,0.08 -0.1,0.08 -0.11,0.06 -0.11,0.07 -0.11,0.06 -0.12,0.05 -0.12,0.05 -0.12,0.04 -0.13,0.03 -0.13,0.03 -0.13,0.03 -0.13,0.01 -0.13,0.01 -0.14,0.01 c -1.43,0 -2.64,-1.19 -2.64,-2.64 0,-1.44 1.21,-2.64 2.64,-2.64 1.46,0 2.64,1.2 2.64,2.64 z"
           inkscape:connector-curvature="0"
           style="fill:#000000;stroke-width:0" /><path
           id="path2554"
           d="m 702.07,408.84 v 0.13 l -0.01,0.14 -0.02,0.13 -0.02,0.13 -0.03,0.12 -0.04,0.13 -0.04,0.12 -0.04,0.12 -0.06,0.12 -0.06,0.11 -0.06,0.11 -0.07,0.11 -0.07,0.1 -0.08,0.1 -0.08,0.1 -0.09,0.09 -0.09,0.09 -0.1,0.08 -0.1,0.08 -0.1,0.07 -0.11,0.07 -0.11,0.07 -0.11,0.06 -0.12,0.05 -0.12,0.05 -0.12,0.04 -0.13,0.04 -0.13,0.03 -0.13,0.02 -0.13,0.02 -0.13,0.01 h -0.14 c -1.43,0 -2.64,-1.2 -2.64,-2.64 0,-1.44 1.21,-2.64 2.64,-2.64 1.46,0 2.64,1.2 2.64,2.64 z"
           inkscape:connector-curvature="0"
           style="fill:#000000;stroke-width:0" /></g>    </g>
    <g
       id="g2794"
       transform="translate(-67.929379,36.161927)">
      <g
         word-spacing="normal"
         letter-spacing="normal"
         font-size-adjust="none"
         font-stretch="normal"
         font-weight="normal"
         font-variant="normal"
         font-style="normal"
         stroke-miterlimit="10.433"
         xml:space="preserve"
         transform="matrix(0.3,0,0,-0.3,-52.5,222.75)"
         id="g2792"
         style="font-style:normal;font-variant:normal;font-weight:normal;font-stretch:normal;letter-spacing:normal;word-spacing:normal;text-anchor:start;fill:none;fill-opacity:1;fill-rule:evenodd;stroke:#000000;stroke-linecap:butt;stroke-linejoin:miter;stroke-miterlimit:10.43299961;stroke-dasharray:none;stroke-dashoffset:0;stroke-opacity:1"><path
           id="path2778"
           d="m 487.16,435 0.1,0.37 0.05,0.19 0.06,0.18 0.06,0.17 0.07,0.17 0.07,0.17 0.08,0.16 0.08,0.16 0.1,0.16 0.09,0.15 0.11,0.14 0.11,0.14 0.13,0.14 0.13,0.12 0.14,0.13 0.15,0.12 0.17,0.11 0.17,0.11 0.19,0.1 0.19,0.09 0.21,0.09 0.23,0.08 0.23,0.08 0.26,0.07 0.26,0.06 0.28,0.06 0.3,0.04 0.31,0.05 0.33,0.03 0.35,0.03 0.18,0.01 h 0.19 c 0.25,0 0.84,0.05 0.84,1 0,0.05 0,0.55 -0.64,0.55 -1.64,0 -3.39,-0.16 -5.08,-0.16 -1.7,0 -3.55,0.16 -5.19,0.16 -0.29,0 -0.89,0 -0.89,-1 0,-0.55 0.5,-0.55 0.89,-0.55 2.85,-0.04 3.39,-1.09 3.39,-2.18 0,-0.16 -0.11,-0.91 -0.15,-1.05 l -4.49,-17.8 c -1.68,-6.67 -7.42,-11 -12.4,-11 -3.38,0 -6.08,2.19 -6.08,6.47 0,0.11 0,1.7 0.55,3.89 l 4.84,19.38 c 0.44,1.79 0.55,2.29 4.19,2.29 1.28,0 1.68,0 1.68,1 0,0.55 -0.54,0.55 -0.7,0.55 -1.39,0 -4.98,-0.16 -6.37,-0.16 -1.44,0 -4.99,0.16 -6.43,0.16 -0.4,0 -0.95,0 -0.95,-1 0,-0.55 0.45,-0.55 1.41,-0.55 0.09,0 1.04,0 1.89,-0.09 0.89,-0.11 1.34,-0.16 1.34,-0.8 0,-0.31 -0.55,-2.39 -0.84,-3.54 l -1.11,-4.38 c -0.44,-1.95 -2.83,-11.36 -3.03,-12.31 -0.35,-1.39 -0.35,-2.14 -0.35,-2.89 0,-6.08 4.53,-9.56 9.77,-9.56 6.26,0 12.45,5.62 14.09,12.2 z"
           inkscape:connector-curvature="0"
           style="fill:#000000;stroke-width:0" /><path
           id="path2780"
           d="m 509.97,421.95 0.21,1.28 3.39,13.56 c 0.43,1.74 0.54,1.89 2.68,1.89 h 4.78 c 4.15,0 6.79,-1.34 6.79,-4.78 0,-1.95 -1,-6.23 -2.94,-8.03 -2.5,-2.23 -5.48,-2.64 -7.69,-2.64 h -7.01 l -0.21,-1.28 h 8.47 c 7.08,0 14,5.17 14,10.75 0,3.84 -3.28,7.53 -9.81,7.53 h -16.14 c -0.95,0 -1.5,0 -1.5,-0.95 0,-0.6 0.45,-0.6 1.45,-0.6 0.64,0 1.55,-0.04 2.14,-0.09 0.8,-0.11 1.1,-0.25 1.1,-0.8 0,-0.2 -0.05,-0.36 -0.21,-0.95 l -6.67,-26.75 c -0.5,-1.95 -0.59,-2.34 -4.53,-2.34 -0.84,0 -1.39,0 -1.39,-0.96 0,-0.59 0.59,-0.59 0.73,-0.59 1.41,0 4.94,0.16 6.33,0.16 1.05,0 2.14,-0.07 3.19,-0.07 1.11,0 2.2,-0.09 3.25,-0.09 0.34,0 0.98,0 0.98,1 0,0.55 -0.43,0.55 -1.39,0.55 -1.84,0 -3.23,0 -3.23,0.89 0,0.29 0.09,0.54 0.14,0.84 z"
           inkscape:connector-curvature="0"
           style="fill:#000000;stroke-width:0" /><path
           id="path2782"
           d="m 571.73,440.82 v 0.02 0.02 0.01 0.02 0.02 l -0.01,0.02 v 0.02 l -0.01,0.02 v 0.02 l -0.01,0.02 -0.01,0.02 -0.01,0.02 -0.01,0.02 -0.01,0.02 -0.01,0.02 -0.02,0.02 -0.01,0.02 -0.02,0.02 -0.02,0.02 -0.02,0.02 -0.02,0.01 -0.02,0.02 -0.03,0.01 -0.03,0.02 -0.02,0.01 -0.02,0.01 h -0.01 l -0.02,0.01 h -0.02 l -0.01,0.01 h -0.02 -0.02 l -0.01,0.01 h -0.02 -0.02 -0.02 -0.02 -0.02 -0.02 c -0.14,0 -0.21,-0.04 -0.75,-0.59 l -3.49,-3.84 c -0.43,0.7 -2.73,4.43 -8.26,4.43 -11.11,0 -22.33,-11.01 -22.33,-22.56 0,-7.92 5.53,-13.65 13.61,-13.65 2.19,0 4.44,0.45 6.22,1.18 2.5,1 3.43,2.05 4.34,3.05 0.45,-1.25 1.74,-3.09 2.24,-3.09 0.25,0 0.35,0.15 0.35,0.2 0.1,0.09 0.6,1.98 0.85,3.03 l 0.94,3.84 c 0.2,0.85 0.45,1.69 0.65,2.55 0.55,2.24 0.6,2.33 3.44,2.39 0.25,0 0.8,0.05 0.8,0.99 0,0.36 -0.25,0.54 -0.64,0.54 -1.16,0 -4.1,-0.14 -5.24,-0.14 -1.54,0 -5.44,0.14 -6.98,0.14 -0.44,0 -1.05,0 -1.05,-0.98 0,-0.55 0.41,-0.55 1.5,-0.55 0.05,0 1.5,0 2.64,-0.11 1.3,-0.14 1.55,-0.29 1.55,-0.94 0,-0.45 -0.55,-2.7 -1.05,-4.53 -1.39,-5.48 -7.87,-6.03 -9.62,-6.03 -4.79,0 -10,2.83 -10,10.46 0,1.54 0.48,9.76 5.71,16.25 2.69,3.39 7.54,6.42 12.46,6.42 5.09,0 8.03,-3.83 8.03,-9.61 0,-2 -0.16,-2.05 -0.16,-2.55 0,-0.5 0.55,-0.5 0.75,-0.5 0.64,0 0.64,0.11 0.89,1 z"
           inkscape:connector-curvature="0"
           style="fill:#000000;stroke-width:0" /><path
           id="path2784"
           d="m 619.13,436.39 0.04,0.16 0.04,0.16 0.04,0.15 0.04,0.14 0.04,0.14 0.04,0.13 0.04,0.12 0.05,0.11 0.05,0.11 0.06,0.11 0.06,0.09 0.07,0.09 0.07,0.09 0.08,0.08 0.09,0.07 0.1,0.07 0.1,0.06 0.12,0.06 0.13,0.05 0.14,0.05 0.16,0.04 0.08,0.02 0.08,0.02 0.09,0.02 0.1,0.02 0.09,0.01 0.1,0.02 0.1,0.01 0.11,0.01 0.11,0.02 0.12,0.01 0.12,0.01 h 0.12 l 0.13,0.01 0.14,0.01 0.13,0.01 h 0.15 0.14 l 0.16,0.01 h 0.15 0.16 0.17 0.17 c 1.14,0 1.6,0 1.6,1 0,0.55 -0.5,0.55 -1.35,0.55 h -6.57 c -1.3,0 -1.35,0 -1.94,-0.95 l -18.19,-28.39 -3.89,28.18 c -0.16,1.16 -0.25,1.16 -1.55,1.16 h -6.82 c -0.94,0 -1.49,0 -1.49,-0.95 0,-0.6 0.44,-0.6 1.44,-0.6 0.65,0 1.55,-0.04 2.14,-0.09 0.8,-0.11 1.09,-0.25 1.09,-0.8 0,-0.2 -0.04,-0.36 -0.18,-0.95 l -6.33,-25.36 c -0.5,-2 -1.35,-3.59 -5.39,-3.73 -0.25,0 -0.89,-0.05 -0.89,-0.96 0,-0.43 0.29,-0.59 0.7,-0.59 1.59,0 3.33,0.16 4.97,0.16 1.7,0 3.5,-0.16 5.14,-0.16 0.25,0 0.89,0 0.89,1 0,0.55 -0.55,0.55 -0.89,0.55 -2.85,0.04 -3.39,1.04 -3.39,2.18 0,0.35 0.04,0.6 0.2,1.14 l 6.77,27.16 h 0.06 l 4.28,-30.89 c 0.09,-0.59 0.14,-1.14 0.75,-1.14 0.55,0 0.84,0.55 1.09,0.89 l 20.13,31.55 h 0.05 l -7.13,-28.55 c -0.5,-1.95 -0.59,-2.34 -4.53,-2.34 -0.84,0 -1.39,0 -1.39,-0.96 0,-0.59 0.59,-0.59 0.75,-0.59 1.39,0 4.78,0.16 6.17,0.16 2.05,0 4.19,-0.16 6.24,-0.16 0.29,0 0.93,0 0.93,1 0,0.55 -0.45,0.55 -1.39,0.55 -1.84,0 -3.23,0 -3.23,0.89 0,0.2 0,0.29 0.25,1.2 z"
           inkscape:connector-curvature="0"
           style="fill:#000000;stroke-width:0" /><path
           id="path2786"
           d="m 635.68,411.93 -0.19,-0.3 -0.19,-0.29 -0.19,-0.28 -0.18,-0.26 -0.19,-0.25 -0.18,-0.23 -0.19,-0.22 -0.19,-0.21 -0.18,-0.2 -0.19,-0.18 -0.19,-0.17 -0.18,-0.16 -0.19,-0.15 -0.19,-0.14 -0.19,-0.13 -0.19,-0.12 -0.19,-0.11 -0.19,-0.1 -0.19,-0.09 -0.19,-0.09 -0.19,-0.07 -0.19,-0.07 -0.2,-0.07 -0.19,-0.05 -0.2,-0.05 -0.19,-0.04 -0.2,-0.04 -0.2,-0.03 -0.4,-0.05 -0.41,-0.03 c -0.61,-0.05 -1.05,-0.05 -1.05,-1 0,-0.3 0.25,-0.55 0.65,-0.55 1.34,0 2.88,0.16 4.28,0.16 1.64,0 3.39,-0.16 4.98,-0.16 0.3,0 0.95,0 0.95,0.95 0,0.55 -0.45,0.6 -0.79,0.6 -1.16,0.09 -2.35,0.5 -2.35,1.73 0,0.61 0.3,1.16 0.69,1.84 l 3.8,6.39 h 12.5 l -0.14,1.54 h -11.42 l 9.82,16.45 1.6,-16.45 0.14,-1.54 c 0.11,-1.04 0.79,-7.82 0.79,-8.32 0,-1.5 -2.59,-1.64 -3.57,-1.64 -0.71,0 -1.21,0 -1.21,-1 0,-0.55 0.6,-0.55 0.71,-0.55 2.03,0 4.18,0.16 6.22,0.16 1.25,0 4.38,-0.16 5.63,-0.16 0.3,0 0.9,0 0.9,1 0,0.55 -0.5,0.55 -1.15,0.55 -3.09,0 -3.09,0.34 -3.25,1.79 l -3.03,31.13 c -0.1,1 -0.1,1.2 -0.95,1.2 -0.8,0 -0.98,-0.34 -1.3,-0.84 z"
           inkscape:connector-curvature="0"
           style="fill:#000000;stroke-width:0" /><path
           id="path2788"
           d="m 687.55,425.03 v 0.13 l -0.01,0.14 -0.02,0.13 -0.02,0.13 -0.03,0.13 -0.04,0.12 -0.04,0.12 -0.05,0.12 -0.05,0.12 -0.06,0.11 -0.06,0.11 -0.07,0.11 -0.08,0.1 -0.07,0.1 -0.09,0.1 -0.08,0.09 -0.1,0.09 -0.09,0.08 -0.1,0.08 -0.11,0.08 -0.1,0.06 -0.11,0.07 -0.12,0.06 -0.11,0.05 -0.12,0.05 -0.13,0.04 -0.12,0.03 -0.13,0.03 -0.13,0.03 -0.13,0.01 -0.13,0.01 -0.14,0.01 c -1.44,0 -2.64,-1.19 -2.64,-2.64 0,-1.44 1.2,-2.64 2.64,-2.64 1.45,0 2.64,1.2 2.64,2.64 z"
           inkscape:connector-curvature="0"
           style="fill:#000000;stroke-width:0" /><path
           id="path2790"
           d="m 687.55,408.84 v 0.13 l -0.01,0.14 -0.02,0.13 -0.02,0.13 -0.03,0.12 -0.04,0.13 -0.04,0.12 -0.05,0.12 -0.05,0.12 -0.06,0.11 -0.06,0.11 -0.07,0.11 -0.08,0.1 -0.07,0.1 -0.09,0.1 -0.08,0.09 -0.1,0.09 -0.09,0.08 -0.1,0.08 -0.11,0.07 -0.1,0.07 -0.11,0.07 -0.12,0.06 -0.11,0.05 -0.12,0.05 -0.13,0.04 -0.12,0.04 -0.13,0.03 -0.13,0.02 -0.13,0.02 -0.13,0.01 h -0.14 c -1.44,0 -2.64,-1.2 -2.64,-2.64 0,-1.44 1.2,-2.64 2.64,-2.64 1.45,0 2.64,1.2 2.64,2.64 z"
           inkscape:connector-curvature="0"
           style="fill:#000000;stroke-width:0" /></g>    </g>
  </g>
</svg>
